<svg width="23" height="24" viewBox="0 0 23 24" fill="none" xmlns="http://www.w3.org/2000/svg">
<path d="M22.667 11.3335C22.667 17.5929 17.5929 22.667 11.3335 22.667C5.07475 22.667 0 17.5929 0 11.3335C0 5.07475 5.07475 0 11.3335 0C17.5929 0 22.667 5.07475 22.667 11.3335Z" fill="#FFCC4D"/>
<path d="M11.3335 18.0003C13.9109 18.0003 16.0002 15.7617 16.0002 13.0002C16.0002 10.2387 13.9109 8.00012 11.3335 8.00012C8.75612 8.00012 6.66675 10.2387 6.66675 13.0002C6.66675 15.7617 8.75612 18.0003 11.3335 18.0003Z" fill="#664500"/>
<path d="M14.3122 18.2476C14.3122 18.2476 14.9769 17.7669 14.4222 17.1716C13.8675 16.5763 13.3415 17.2063 13.3415 17.2063L10.5762 19.7836C10.5302 19.647 10.2702 19.2883 10.2095 19.1523L14.0462 15.5749C14.0462 15.5749 14.7116 15.0942 14.1555 14.4982C13.6009 13.9036 13.0742 14.5322 13.0742 14.5322L9.46547 17.8963C9.38214 17.7909 9.15813 17.5363 9.06947 17.4309L13.2535 13.5309C13.2535 13.5309 13.9182 13.0495 13.3629 12.4549C12.8082 11.8595 12.2822 12.4889 12.2822 12.4889L8.09678 16.3876C7.99678 16.2909 7.68878 15.9816 7.58744 15.8902L11.4982 12.2449C11.4982 12.2449 12.1622 11.7635 11.6075 11.1688C11.0522 10.5735 10.5268 11.2028 10.5268 11.2028L6.39142 15.0569L6.06008 15.3662L5.91341 15.5042C5.91341 15.5042 5.55474 16.0003 5.18874 15.6236L6.41676 12.8515C6.41676 12.8515 6.80343 12.1355 6.08808 11.7482C5.37141 11.3608 4.98473 12.0769 4.98473 12.0769L3.87272 13.9156C3.43071 14.6442 2.97337 15.3676 2.43336 16.0269C0.910669 17.8889 0.959336 20.6363 2.64536 22.4464C4.48473 24.4191 7.57611 24.5277 9.54881 22.689L9.84681 22.4104L14.3122 18.2476Z" fill="#F4900C"/>
<path d="M6.67745 4.0534C5.17409 4.45607 4.35741 5.36342 4.30741 5.42008C4.06474 5.69675 4.09208 6.11809 4.36808 6.36143C4.64475 6.60477 5.06543 6.5781 5.30876 6.30076C5.36143 6.24276 6.70212 4.79874 9.18216 5.30608C9.5435 5.38008 9.8955 5.14675 9.96884 4.78674C10.0428 4.42607 9.81017 4.0734 9.44949 4.00006C8.35948 3.77606 7.43213 3.85139 6.67745 4.0534ZM15.9896 4.05406C15.2349 3.85206 14.3076 3.77672 13.2169 3.99939C12.8562 4.0734 12.6235 4.4254 12.6975 4.78607C12.7722 5.14675 13.1236 5.37942 13.4842 5.30542C15.9669 4.79741 17.305 6.2421 17.3603 6.30343C17.605 6.57477 18.027 6.59944 18.3003 6.35543C18.5736 6.11143 18.601 5.69475 18.359 5.41942C18.309 5.36342 17.4923 4.45673 15.9896 4.05406Z" fill="#664500"/>
</svg>
