<svg width="24" height="24" viewBox="0 0 24 24" fill="none" xmlns="http://www.w3.org/2000/svg">
<path d="M24 12C24 18.6273 18.6273 24 12 24C5.37333 24 0 18.6273 0 12C0 5.37333 5.37333 0 12 0C18.6273 0 24 5.37333 24 12Z" fill="#FFCB4C"/>
<path d="M8.11733 12.2773C9.09193 12.2773 9.88199 11.1712 9.88199 9.80667C9.88199 8.44215 9.09193 7.336 8.11733 7.336C7.14273 7.336 6.35266 8.44215 6.35266 9.80667C6.35266 11.1712 7.14273 12.2773 8.11733 12.2773Z" fill="#65471B"/>
<path d="M16.588 14.1173C19.1219 14.1173 21.176 12.0632 21.176 9.52934C21.176 6.99546 19.1219 4.94135 16.588 4.94135C14.0541 4.94135 12 6.99546 12 9.52934C12 12.0632 14.0541 14.1173 16.588 14.1173Z" fill="#F4F7F9"/>
<path d="M9.88332 6.63065C9.66865 6.63065 9.45665 6.53332 9.31799 6.34865C8.65732 5.46798 7.96599 4.99599 7.26265 4.94599C6.33599 4.88265 5.58065 5.57732 5.43999 5.71798C5.16399 5.99398 4.71732 5.99398 4.44199 5.71798C4.16599 5.44198 4.16599 4.99532 4.44199 4.71998C4.74665 4.41532 5.86132 3.42932 7.36265 3.53798C8.49265 3.61798 9.52998 4.27865 10.4473 5.50132C10.6813 5.81332 10.618 6.25599 10.3067 6.48932C10.1787 6.58465 10.03 6.63065 9.88332 6.63065Z" fill="#65471B"/>
<path d="M21.8826 24C21.4926 24 21.1766 23.684 21.1766 23.294V9.8827C21.1766 9.4927 21.4926 9.1767 21.8826 9.1767C22.2726 9.1767 22.5886 9.4927 22.5886 9.8827V23.2947C22.588 23.684 22.2726 24 21.8826 24Z" fill="#292F33"/>
<path d="M21.8826 8.47069C21.8466 8.47069 21.8126 8.47868 21.7773 8.48135C21.2893 6.06268 19.1486 4.23535 16.5879 4.23535C13.6686 4.23535 11.2939 6.61002 11.2939 9.52935C11.2939 12.4487 13.6686 14.8234 16.5879 14.8234C18.8999 14.8234 20.8653 13.3314 21.5853 11.2614C21.6813 11.282 21.7799 11.294 21.8819 11.294C22.6619 11.294 23.2939 10.662 23.2939 9.88202C23.2939 9.10268 22.6619 8.47069 21.8826 8.47069ZM16.5879 13.412C14.4473 13.412 12.7059 11.6707 12.7059 9.52935C12.7059 7.38802 14.4479 5.64669 16.5879 5.64669C18.7286 5.64669 20.4706 7.38802 20.4706 9.52935C20.4706 11.6707 18.7286 13.412 16.5879 13.412Z" fill="#67757F"/>
<path d="M14.1167 19.0587C14.0107 19.0587 13.9027 19.0347 13.8014 18.984C12.5887 18.3773 11.41 18.3773 10.1974 18.984C9.84804 19.158 9.42404 19.0173 9.25004 18.668C9.07537 18.3193 9.21671 17.8953 9.56604 17.7207C11.18 16.914 12.8174 16.914 14.4327 17.7207C14.7814 17.8953 14.9227 18.3193 14.7487 18.668C14.6254 18.916 14.376 19.0587 14.1167 19.0587Z" fill="#65471B"/>
<path d="M18.6993 6.27401C18.0913 5.87867 17.3673 5.64734 16.588 5.64734C14.444 5.64734 12.7053 7.38534 12.7053 9.53001C12.7053 10.3093 12.9373 11.0333 13.332 11.6413L18.6993 6.27401ZM14.9313 13.0367C15.4347 13.2747 15.9947 13.412 16.588 13.412C18.732 13.412 20.4707 11.674 20.4707 9.52934C20.4707 8.93601 20.3333 8.37534 20.0953 7.87267L14.9313 13.0367Z" fill="#BDDDF4"/>
</svg>
