<svg width="24" height="24" viewBox="0 0 24 24" fill="none" xmlns="http://www.w3.org/2000/svg">
<path d="M24 12C24 18.6273 18.6273 24 12 24C5.37333 24 0 18.6273 0 12C0 5.37333 5.37333 0 12 0C18.6273 0 24 5.37333 24 12Z" fill="#FFCC4D"/>
<path d="M7.66667 12C8.58714 12 9.33333 10.3583 9.33333 8.33329C9.33333 6.30825 8.58714 4.66663 7.66667 4.66663C6.74619 4.66663 6 6.30825 6 8.33329C6 10.3583 6.74619 12 7.66667 12Z" fill="#664500"/>
<path d="M16.3333 12C17.2538 12 18 10.3583 18 8.33329C18 6.30825 17.2538 4.66663 16.3333 4.66663C15.4128 4.66663 14.6666 6.30825 14.6666 8.33329C14.6666 10.3583 15.4128 12 16.3333 12Z" fill="#664500"/>
<path d="M12 14.6666C9.58463 14.6666 7.98196 14.3853 5.99996 14C5.54729 13.9126 4.66663 14 4.66663 15.3333C4.66663 18 7.72996 21.3333 12 21.3333C16.2693 21.3333 19.3333 18 19.3333 15.3333C19.3333 14 18.4526 13.912 18 14C16.018 14.3853 14.4153 14.6666 12 14.6666Z" fill="#664500"/>
<path d="M6 15.3334C6 15.3334 8 16 12 16C16 16 18 15.3334 18 15.3334C18 15.3334 16.6667 18 12 18C7.33333 18 6 15.3334 6 15.3334Z" fill="white"/>
</svg>
