<svg width="24" height="24" viewBox="0 0 24 24" fill="none" xmlns="http://www.w3.org/2000/svg">
<path d="M12 24C18.6274 24 24 18.6274 24 12C24 5.37258 18.6274 0 12 0C5.37258 0 0 5.37258 0 12C0 18.6274 5.37258 24 12 24Z" fill="#FFCC4D"/>
<path d="M7.00999 15.7474C7.03999 15.8667 7.78865 18.6667 12 18.6667C16.212 18.6667 16.96 15.8667 16.99 15.7474C17.0267 15.6027 16.9613 15.4527 16.832 15.378C16.702 15.304 16.5393 15.326 16.432 15.4294C16.4193 15.442 15.1293 16.6667 12 16.6667C8.87065 16.6667 7.57999 15.442 7.56799 15.43C7.50399 15.3667 7.41865 15.3334 7.33332 15.3334C7.27732 15.3334 7.22065 15.3474 7.16932 15.376C7.03865 15.4507 6.97332 15.602 7.00999 15.7474Z" fill="#664500"/>
<path d="M8.00004 11.3333C8.92052 11.3333 9.66671 10.2886 9.66671 8.99996C9.66671 7.71129 8.92052 6.66663 8.00004 6.66663C7.07957 6.66663 6.33337 7.71129 6.33337 8.99996C6.33337 10.2886 7.07957 11.3333 8.00004 11.3333Z" fill="#664500"/>
<path d="M16 11.3333C16.9205 11.3333 17.6667 10.2886 17.6667 8.99996C17.6667 7.71129 16.9205 6.66663 16 6.66663C15.0796 6.66663 14.3334 7.71129 14.3334 8.99996C14.3334 10.2886 15.0796 11.3333 16 11.3333Z" fill="#664500"/>
</svg>
