<svg width="24" height="24" viewBox="0 0 24 24" fill="none" xmlns="http://www.w3.org/2000/svg">
<path d="M24 12C24 18.6273 18.6273 24 12 24C5.37333 24 0 18.6273 0 12C0 5.37333 5.37333 0 12 0C18.6273 0 24 5.37333 24 12Z" fill="#DA2F47"/>
<path d="M16.9899 19.9193C16.9599 19.8 16.2113 17 11.9999 17C7.78794 17 7.03995 19.8 7.00995 19.9193C6.97328 20.064 7.03861 20.214 7.16794 20.2886C7.29794 20.3613 7.46061 20.3413 7.56795 20.2373C7.58061 20.2246 8.87061 19 11.9999 19C15.1293 19 16.4199 20.2246 16.4319 20.2366C16.4959 20.3 16.5813 20.3333 16.6666 20.3333C16.7226 20.3333 16.7793 20.3193 16.8306 20.2906C16.9613 20.216 17.0266 20.0646 16.9899 19.9193ZM10.4713 11.5286C8.30128 9.35865 4.81394 9.33331 4.66661 9.33331C4.29861 9.33331 4.00061 9.63131 4.00061 9.99865C3.99994 10.3666 4.29794 10.6653 4.66594 10.6666C4.68528 10.6666 5.94928 10.6813 7.32128 11.158C6.92595 11.5846 6.66661 12.2473 6.66661 13C6.66661 14.2893 7.41261 15.3333 8.33328 15.3333C9.25394 15.3333 9.99994 14.2893 9.99994 13C9.99994 12.884 9.98728 12.7733 9.97528 12.662C9.98394 12.662 9.99194 12.6666 9.99994 12.6666C10.1706 12.6666 10.3413 12.6013 10.4713 12.4713C10.7319 12.2106 10.7319 11.7893 10.4713 11.5286ZM19.3333 9.33331C19.1859 9.33331 15.6993 9.35865 13.5286 11.5286C13.2679 11.7893 13.2679 12.2106 13.5286 12.4713C13.6586 12.6013 13.8293 12.6666 13.9999 12.6666C14.0086 12.6666 14.0159 12.662 14.0239 12.662C14.0133 12.7733 13.9999 12.884 13.9999 13C13.9999 14.2893 14.7459 15.3333 15.6666 15.3333C16.5873 15.3333 17.3333 14.2893 17.3333 13C17.3333 12.2473 17.0739 11.5846 16.6786 11.158C18.0506 10.6813 19.3146 10.6666 19.3346 10.6666C19.7019 10.6653 19.9999 10.3666 19.9993 9.99865C19.9986 9.63131 19.7013 9.33331 19.3333 9.33331Z" fill="#292F33"/>
</svg>
