<svg width="148" height="26" viewBox="0 0 148 26" fill="none" xmlns="http://www.w3.org/2000/svg">
<path d="M85.6555 0C84.493 0 83.1336 1.33806 82.4055 2.2C81.6773 1.33806 80.3179 0 79.1555 0C77.0978 0 75.9055 1.6296 75.9055 3.70363C75.9055 7.15 82.4055 11 82.4055 11C82.4055 11 88.9055 7.15 88.9055 3.85C88.9055 1.77597 87.7131 0 85.6555 0Z" fill="#EB5757"/>
<path d="M9.60449 3.6377L9.56348 3.63086L6.89746 11H5.55762L2.90527 3.6582L2.86426 3.66504L3.05566 8.0332V9.59863L4.12207 9.80371V11H0V9.80371L1.05957 9.59863V2.45508L0 2.25V1.04688H3.66406L6.2002 8.38184H6.24121L8.79785 1.04688H12.4756V2.25L11.4092 2.45508V9.59863L12.4756 9.80371V11H8.35352V9.80371L9.41309 9.59863V8.0332L9.60449 3.6377Z" fill="black"/>
<path d="M18.1012 11C18.0465 10.877 17.9986 10.7516 17.9576 10.624C17.9166 10.4919 17.8847 10.3597 17.8619 10.2275C17.6249 10.501 17.3355 10.722 16.9937 10.8906C16.6565 11.0592 16.2691 11.1436 15.8316 11.1436C15.107 11.1436 14.5305 10.9476 14.1021 10.5557C13.6783 10.1592 13.4664 9.62142 13.4664 8.94238C13.4664 8.24967 13.7444 7.71419 14.3004 7.33594C14.8564 6.95768 15.6721 6.76855 16.7477 6.76855H17.7662V6.04395C17.7662 5.68848 17.6637 5.41276 17.4586 5.2168C17.2535 5.02083 16.9505 4.92285 16.5494 4.92285C16.3215 4.92285 16.1187 4.9502 15.941 5.00488C15.7633 5.05501 15.6197 5.11654 15.5104 5.18945L15.3805 5.98242H13.8766L13.8834 4.3418C14.248 4.0957 14.665 3.88835 15.1344 3.71973C15.6083 3.55111 16.1233 3.4668 16.6793 3.4668C17.5953 3.4668 18.3382 3.69238 18.9078 4.14355C19.482 4.59017 19.7691 5.22819 19.7691 6.05762V9.11328C19.7691 9.22721 19.7691 9.33431 19.7691 9.43457C19.7737 9.53483 19.7828 9.63053 19.7965 9.72168L20.4049 9.80371V11H18.1012ZM16.3717 9.66699C16.6725 9.66699 16.9459 9.60319 17.192 9.47559C17.4381 9.34342 17.6295 9.17936 17.7662 8.9834V7.85547H16.7477C16.3238 7.85547 16.0025 7.95573 15.7838 8.15625C15.565 8.35221 15.4557 8.58919 15.4557 8.86719C15.4557 9.11784 15.5354 9.3138 15.6949 9.45508C15.859 9.59635 16.0846 9.66699 16.3717 9.66699Z" fill="black"/>
<path d="M26.051 10.0977C25.8186 10.4395 25.5428 10.6992 25.2238 10.877C24.9094 11.0547 24.5493 11.1436 24.1437 11.1436C23.2323 11.1436 22.5236 10.8109 22.0178 10.1455C21.5165 9.48014 21.2658 8.60059 21.2658 7.50684V7.36328C21.2658 6.19661 21.5187 5.25553 22.0246 4.54004C22.5305 3.82454 23.2414 3.4668 24.1574 3.4668C24.5266 3.4668 24.8592 3.54883 25.1555 3.71289C25.4517 3.8724 25.7115 4.10026 25.9348 4.39648V1.74414L24.8684 1.53906V0.335938H27.9309V9.59863L28.8879 9.80371V11H26.2014L26.051 10.0977ZM23.2619 7.50684C23.2619 8.15397 23.369 8.66439 23.5832 9.03809C23.802 9.40723 24.1574 9.5918 24.6496 9.5918C24.9413 9.5918 25.1942 9.53255 25.4084 9.41406C25.6226 9.29557 25.798 9.12467 25.9348 8.90137V5.76367C25.798 5.52669 25.6226 5.3444 25.4084 5.2168C25.1988 5.08464 24.9504 5.01855 24.6633 5.01855C24.1756 5.01855 23.8202 5.23503 23.5969 5.66797C23.3736 6.10091 23.2619 6.66602 23.2619 7.36328V7.50684Z" fill="black"/>
<path d="M33.2146 11.1436C32.1482 11.1436 31.296 10.8018 30.658 10.1182C30.02 9.43457 29.701 8.56641 29.701 7.51367V7.24023C29.701 6.14193 30.0018 5.2373 30.6033 4.52637C31.2094 3.81543 32.0206 3.46224 33.0369 3.4668C34.035 3.4668 34.8097 3.76758 35.3611 4.36914C35.9126 4.9707 36.1883 5.78418 36.1883 6.80957V7.89648H31.7723L31.7586 7.9375C31.7951 8.42513 31.9568 8.82617 32.2439 9.14062C32.5356 9.45508 32.9298 9.6123 33.4266 9.6123C33.8686 9.6123 34.2355 9.56901 34.5271 9.48242C34.8188 9.39128 35.1378 9.25 35.4842 9.05859L36.0242 10.2891C35.7189 10.5306 35.3224 10.7334 34.8348 10.8975C34.3517 11.0615 33.8117 11.1436 33.2146 11.1436ZM33.0369 5.00488C32.6678 5.00488 32.3761 5.14616 32.1619 5.42871C31.9477 5.71126 31.8156 6.08268 31.7654 6.54297L31.7859 6.57715H34.2332V6.39941C34.2332 5.97559 34.1329 5.63835 33.9324 5.3877C33.7365 5.13249 33.438 5.00488 33.0369 5.00488Z" fill="black"/>
<path d="M51.4111 4.80664L50.666 4.90234L49.1211 11H47.4531L46.0791 6.59766H46.0381L44.6641 11H43.0029L41.4512 4.90234L40.7061 4.80664V3.60352H44.0557V4.80664L43.2695 4.95703L43.9668 8.34082H44.0078L45.3887 3.60352H46.7285L48.123 8.35449H48.1641L48.8545 4.96387L48.0615 4.80664V3.60352H51.4111V4.80664Z" fill="black"/>
<path d="M52.1832 9.80371L53.1471 9.59863V5.01172L52.0807 4.80664V3.60352H55.1432V9.59863L56.1002 9.80371V11H52.1832V9.80371ZM55.1432 1.83301H53.1471V0.335938H55.1432V1.83301Z" fill="black"/>
<path d="M59.8527 1.79199V3.60352H61.1516V5.00488H59.8527V8.77148C59.8527 9.05859 59.912 9.26367 60.0305 9.38672C60.149 9.50977 60.3085 9.57129 60.509 9.57129C60.6457 9.57129 60.7642 9.56673 60.8645 9.55762C60.9693 9.54395 61.0855 9.52344 61.2131 9.49609L61.384 10.9385C61.1607 11.0068 60.9397 11.057 60.7209 11.0889C60.5022 11.1253 60.2652 11.1436 60.01 11.1436C59.3218 11.1436 58.7909 10.9544 58.4172 10.5762C58.048 10.1979 57.8635 9.59863 57.8635 8.77832V5.00488H56.7766V3.60352H57.8635V1.79199H59.8527Z" fill="black"/>
<path d="M62.1697 9.80371L63.1336 9.59863V1.74414L62.0672 1.53906V0.335938H65.1228V4.54688C65.3553 4.20508 65.6401 3.94076 65.9773 3.75391C66.3146 3.5625 66.6883 3.4668 67.0984 3.4668C67.8732 3.4668 68.4793 3.72428 68.9168 4.23926C69.3588 4.74967 69.5799 5.54036 69.5799 6.61133V9.59863L70.5369 9.80371V11H66.7225V9.80371L67.5838 9.59863V6.59766C67.5838 6.02344 67.4812 5.61784 67.2762 5.38086C67.0756 5.13932 66.7749 5.01855 66.3738 5.01855C66.0958 5.01855 65.852 5.06869 65.6424 5.16895C65.4373 5.26921 65.2641 5.41048 65.1228 5.59277V9.59863L65.9842 9.80371V11H62.1697V9.80371Z" fill="black"/>
<path d="M96.3395 9.80371L97.3033 9.59863V5.01172L96.2369 4.80664V3.60352H99.2994V9.59863L100.256 9.80371V11H96.3395V9.80371ZM99.2994 1.83301H97.3033V0.335938H99.2994V1.83301Z" fill="black"/>
<path d="M100.953 9.80371L101.91 9.59863V5.01172L100.851 4.80664V3.60352H103.77L103.859 4.66309C104.105 4.28483 104.408 3.99089 104.768 3.78125C105.128 3.57161 105.531 3.4668 105.978 3.4668C106.725 3.4668 107.308 3.7015 107.728 4.1709C108.147 4.6403 108.357 5.3763 108.357 6.37891V9.59863L109.314 9.80371V11H105.499V9.80371L106.354 9.59863V6.38574C106.354 5.889 106.253 5.53809 106.053 5.33301C105.852 5.12337 105.549 5.01855 105.144 5.01855C104.879 5.01855 104.642 5.07324 104.433 5.18262C104.223 5.28744 104.048 5.43783 103.906 5.63379V9.59863L104.713 9.80371V11H100.953V9.80371Z" fill="black"/>
<path d="M113.626 2.25V1.04688H117.748V2.25L116.682 2.45508V9.59863L117.748 9.80371V11H113.626V9.80371L114.693 9.59863V2.45508L113.626 2.25Z" fill="black"/>
<path d="M118.603 9.80371L119.56 9.59863V5.01172L118.5 4.80664V3.60352H121.419L121.508 4.66309C121.754 4.28483 122.057 3.99089 122.417 3.78125C122.777 3.57161 123.18 3.4668 123.627 3.4668C124.374 3.4668 124.958 3.7015 125.377 4.1709C125.796 4.6403 126.006 5.3763 126.006 6.37891V9.59863L126.963 9.80371V11H123.148V9.80371L124.003 9.59863V6.38574C124.003 5.889 123.903 5.53809 123.702 5.33301C123.502 5.12337 123.199 5.01855 122.793 5.01855C122.529 5.01855 122.292 5.07324 122.082 5.18262C121.872 5.28744 121.697 5.43783 121.556 5.63379V9.59863L122.362 9.80371V11H118.603V9.80371Z" fill="black"/>
<path d="M132.493 10.0977C132.26 10.4395 131.985 10.6992 131.666 10.877C131.351 11.0547 130.991 11.1436 130.586 11.1436C129.674 11.1436 128.965 10.8109 128.46 10.1455C127.958 9.48014 127.708 8.60059 127.708 7.50684V7.36328C127.708 6.19661 127.961 5.25553 128.466 4.54004C128.972 3.82454 129.683 3.4668 130.599 3.4668C130.968 3.4668 131.301 3.54883 131.597 3.71289C131.893 3.8724 132.153 4.10026 132.377 4.39648V1.74414L131.31 1.53906V0.335938H134.373V9.59863L135.33 9.80371V11H132.643L132.493 10.0977ZM129.704 7.50684C129.704 8.15397 129.811 8.66439 130.025 9.03809C130.244 9.40723 130.599 9.5918 131.091 9.5918C131.383 9.5918 131.636 9.53255 131.85 9.41406C132.064 9.29557 132.24 9.12467 132.377 8.90137V5.76367C132.24 5.52669 132.064 5.3444 131.85 5.2168C131.641 5.08464 131.392 5.01855 131.105 5.01855C130.617 5.01855 130.262 5.23503 130.039 5.66797C129.815 6.10091 129.704 6.66602 129.704 7.36328V7.50684Z" fill="black"/>
<path d="M136.054 9.80371L137.018 9.59863V5.01172L135.951 4.80664V3.60352H139.014V9.59863L139.971 9.80371V11H136.054V9.80371ZM139.014 1.83301H137.018V0.335938H139.014V1.83301Z" fill="black"/>
<path d="M145.487 11C145.432 10.877 145.385 10.7516 145.344 10.624C145.303 10.4919 145.271 10.3597 145.248 10.2275C145.011 10.501 144.721 10.722 144.38 10.8906C144.042 11.0592 143.655 11.1436 143.218 11.1436C142.493 11.1436 141.916 10.9476 141.488 10.5557C141.064 10.1592 140.852 9.62142 140.852 8.94238C140.852 8.24967 141.13 7.71419 141.686 7.33594C142.242 6.95768 143.058 6.76855 144.134 6.76855H145.152V6.04395C145.152 5.68848 145.05 5.41276 144.845 5.2168C144.639 5.02083 144.336 4.92285 143.935 4.92285C143.707 4.92285 143.505 4.9502 143.327 5.00488C143.149 5.05501 143.006 5.11654 142.896 5.18945L142.766 5.98242H141.262L141.269 4.3418C141.634 4.0957 142.051 3.88835 142.52 3.71973C142.994 3.55111 143.509 3.4668 144.065 3.4668C144.981 3.4668 145.724 3.69238 146.294 4.14355C146.868 4.59017 147.155 5.22819 147.155 6.05762V9.11328C147.155 9.22721 147.155 9.33431 147.155 9.43457C147.16 9.53483 147.169 9.63053 147.182 9.72168L147.791 9.80371V11H145.487ZM143.758 9.66699C144.058 9.66699 144.332 9.60319 144.578 9.47559C144.824 9.34342 145.015 9.17936 145.152 8.9834V7.85547H144.134C143.71 7.85547 143.388 7.95573 143.17 8.15625C142.951 8.35221 142.842 8.58919 142.842 8.86719C142.842 9.11784 142.921 9.3138 143.081 9.45508C143.245 9.59635 143.471 9.66699 143.758 9.66699Z" fill="black"/>
<path d="M18.092 18.3369L17.4866 18.4443L18.175 21.0762L18.2874 21.7158H18.3167L18.4534 21.0762L19.5081 17.7168H20.2795L21.3391 21.0762L21.4905 21.7891H21.5198L21.6614 21.0762L22.3108 18.4443L21.6956 18.3369V17.7168H23.7073V18.3369L23.2483 18.4053L21.9153 23H21.1389L20.1135 19.7822L19.8938 18.8936L19.8645 18.8984L19.6594 19.7822L18.6536 23H17.8772L16.5442 18.4053L16.0803 18.3369V17.7168H18.092V18.3369Z" fill="black"/>
<path d="M26.5135 18.3369L25.9081 18.4443L26.5965 21.0762L26.7088 21.7158H26.7381L26.8749 21.0762L27.9295 17.7168H28.701L29.7606 21.0762L29.912 21.7891H29.9413L30.0829 21.0762L30.7323 18.4443L30.117 18.3369V17.7168H32.1288V18.3369L31.6698 18.4053L30.3368 23H29.5604L28.535 19.7822L28.3153 18.8936L28.286 18.8984L28.0809 19.7822L27.075 23H26.2987L24.9657 18.4053L24.5018 18.3369V17.7168H26.5135V18.3369Z" fill="black"/>
<path d="M34.935 18.3369L34.3295 18.4443L35.018 21.0762L35.1303 21.7158H35.1596L35.2963 21.0762L36.351 17.7168H37.1225L38.1821 21.0762L38.3334 21.7891H38.3627L38.5043 21.0762L39.1538 18.4443L38.5385 18.3369V17.7168H40.5502V18.3369L40.0913 18.4053L38.7583 23H37.9819L36.9565 19.7822L36.7368 18.8936L36.7075 18.8984L36.5024 19.7822L35.4965 23H34.7202L33.3872 18.4053L32.9233 18.3369V17.7168H34.935V18.3369Z" fill="black"/>
<path d="M42.1114 23H41.1495V22.0137H42.1114V23Z" fill="black"/>
<path d="M45.1178 16.4424V17.7168H46.1188V18.4297H45.1178V21.6377C45.1178 21.8851 45.1683 22.0592 45.2692 22.1602C45.3734 22.2611 45.5101 22.3115 45.6793 22.3115C45.764 22.3115 45.8584 22.305 45.9626 22.292C46.07 22.2757 46.1595 22.2594 46.2311 22.2432L46.3629 22.9023C46.2718 22.9609 46.1383 23.0081 45.9626 23.0439C45.7868 23.083 45.611 23.1025 45.4352 23.1025C45.0446 23.1025 44.7337 22.9854 44.5026 22.751C44.2715 22.5133 44.1559 22.1423 44.1559 21.6377V18.4297H43.3209V17.7168H44.1559V16.4424H45.1178Z" fill="black"/>
<path d="M47.1184 22.3848L47.9143 22.248V16.1396L47.1184 16.0029V15.3828H48.8762V18.4199C49.0585 18.166 49.2815 17.9691 49.5452 17.8291C49.8088 17.6891 50.1018 17.6191 50.4241 17.6191C50.9905 17.6191 51.4299 17.7884 51.7424 18.127C52.0549 18.4655 52.2112 18.9863 52.2112 19.6895V22.248L53.0071 22.3848V23H50.4534V22.3848L51.2493 22.248V19.6797C51.2493 19.2435 51.1549 18.9212 50.9661 18.7129C50.7805 18.5046 50.5022 18.4004 50.1311 18.4004C49.8674 18.4004 49.6265 18.4639 49.4084 18.5908C49.1936 18.7145 49.0162 18.8838 48.8762 19.0986V22.248L49.6721 22.3848V23H47.1184V22.3848Z" fill="black"/>
<path d="M56.2186 23.1025C55.4829 23.1025 54.897 22.8584 54.4608 22.3701C54.0278 21.8786 53.8114 21.2422 53.8114 20.4609V20.2461C53.8114 19.4941 54.0344 18.8691 54.4803 18.3711C54.9295 17.8698 55.4601 17.6191 56.0721 17.6191C56.7818 17.6191 57.3189 17.834 57.6834 18.2637C58.0513 18.6934 58.2352 19.2663 58.2352 19.9824V20.583H54.8075L54.7928 20.6074C54.8026 21.1152 54.9312 21.5335 55.1786 21.8623C55.426 22.1878 55.7726 22.3506 56.2186 22.3506C56.5441 22.3506 56.829 22.305 57.0731 22.2139C57.3205 22.1195 57.5337 21.9909 57.7127 21.8281L58.0887 22.4531C57.8999 22.6354 57.6493 22.79 57.3368 22.917C57.0275 23.0407 56.6548 23.1025 56.2186 23.1025ZM56.0721 18.376C55.7499 18.376 55.4748 18.5127 55.2469 18.7861C55.0191 19.0563 54.8791 19.3965 54.827 19.8066L54.8368 19.8311H57.2733V19.7041C57.2733 19.3265 57.1724 19.0107 56.9706 18.7568C56.7687 18.5029 56.4693 18.376 56.0721 18.376Z" fill="black"/>
<path d="M59.2055 22.3848L60.0014 22.248V16.1396L59.2055 16.0029V15.3828H60.9633V18.4199C61.1456 18.166 61.3686 17.9691 61.6323 17.8291C61.8959 17.6891 62.1889 17.6191 62.5112 17.6191C63.0776 17.6191 63.517 17.7884 63.8295 18.127C64.142 18.4655 64.2983 18.9863 64.2983 19.6895V22.248L65.0942 22.3848V23H62.5405V22.3848L63.3364 22.248V19.6797C63.3364 19.2435 63.242 18.9212 63.0532 18.7129C62.8676 18.5046 62.5893 18.4004 62.2182 18.4004C61.9545 18.4004 61.7137 18.4639 61.4956 18.5908C61.2807 18.7145 61.1033 18.8838 60.9633 19.0986V22.248L61.7592 22.3848V23H59.2055V22.3848Z" fill="black"/>
<path d="M68.3057 23.1025C67.57 23.1025 66.9841 22.8584 66.5479 22.3701C66.115 21.8786 65.8985 21.2422 65.8985 20.4609V20.2461C65.8985 19.4941 66.1215 18.8691 66.5674 18.3711C67.0167 17.8698 67.5472 17.6191 68.1592 17.6191C68.8689 17.6191 69.406 17.834 69.7706 18.2637C70.1384 18.6934 70.3223 19.2663 70.3223 19.9824V20.583H66.8946L66.8799 20.6074C66.8897 21.1152 67.0183 21.5335 67.2657 21.8623C67.5131 22.1878 67.8597 22.3506 68.3057 22.3506C68.6312 22.3506 68.9161 22.305 69.1602 22.2139C69.4076 22.1195 69.6208 21.9909 69.7999 21.8281L70.1758 22.4531C69.987 22.6354 69.7364 22.79 69.4239 22.917C69.1146 23.0407 68.7419 23.1025 68.3057 23.1025ZM68.1592 18.376C67.837 18.376 67.5619 18.5127 67.334 18.7861C67.1062 19.0563 66.9662 19.3965 66.9141 19.8066L66.9239 19.8311H69.3604V19.7041C69.3604 19.3265 69.2595 19.0107 69.0577 18.7568C68.8558 18.5029 68.5564 18.376 68.1592 18.376Z" fill="black"/>
<path d="M74.8717 23C74.8424 22.8568 74.8196 22.7282 74.8034 22.6143C74.7871 22.5003 74.7757 22.3864 74.7692 22.2725C74.5836 22.5101 74.3509 22.7087 74.0709 22.8682C73.7943 23.0244 73.498 23.1025 73.1823 23.1025C72.6321 23.1025 72.2138 22.9691 71.9274 22.7021C71.6409 22.432 71.4977 22.0527 71.4977 21.5645C71.4977 21.0632 71.6995 20.6774 72.1032 20.4072C72.5101 20.1338 73.0667 19.9971 73.7731 19.9971H74.7643V19.3818C74.7643 19.0726 74.6666 18.8285 74.4713 18.6494C74.276 18.4671 74.0042 18.376 73.6559 18.376C73.415 18.376 73.2018 18.4069 73.0163 18.4688C72.834 18.5306 72.6859 18.6152 72.5719 18.7227L72.4694 19.2793H71.7272V18.2539C71.9681 18.0618 72.2594 17.9089 72.6012 17.7949C72.943 17.6777 73.3141 17.6191 73.7145 17.6191C74.3135 17.6191 74.7985 17.7721 75.1696 18.0781C75.5407 18.3841 75.7262 18.8219 75.7262 19.3916V21.9355C75.7262 22.0039 75.7262 22.0706 75.7262 22.1357C75.7295 22.2008 75.7344 22.266 75.7409 22.3311L76.1315 22.3848V23H74.8717ZM73.3239 22.2969C73.6429 22.2969 73.9342 22.2204 74.1979 22.0674C74.4616 21.9144 74.6504 21.7305 74.7643 21.5156V20.6465H73.7389C73.345 20.6465 73.0325 20.7376 72.8014 20.9199C72.5735 21.1022 72.4596 21.3236 72.4596 21.584C72.4596 21.8151 72.5312 21.9925 72.6745 22.1162C72.8177 22.2367 73.0342 22.2969 73.3239 22.2969Z" fill="black"/>
<path d="M80.6418 22.3701C80.4693 22.611 80.2577 22.7933 80.0071 22.917C79.7597 23.0407 79.4716 23.1025 79.1428 23.1025C78.4983 23.1025 77.9937 22.8698 77.6292 22.4043C77.2678 21.9355 77.0872 21.3203 77.0872 20.5586V20.4561C77.0872 19.6064 77.2678 18.9212 77.6292 18.4004C77.9937 17.8796 78.5015 17.6191 79.1526 17.6191C79.4651 17.6191 79.7402 17.6777 79.9778 17.7949C80.2187 17.9089 80.4237 18.0749 80.593 18.293V16.1396L79.7971 16.0029V15.3828H81.5549V22.248L82.3508 22.3848V23H80.72L80.6418 22.3701ZM78.0491 20.5586C78.0491 21.0892 78.1581 21.5156 78.3762 21.8379C78.5943 22.1602 78.9312 22.3213 79.387 22.3213C79.6734 22.3213 79.9143 22.2562 80.1096 22.126C80.3049 21.9958 80.4661 21.8118 80.593 21.5742V19.123C80.4693 18.9017 80.3082 18.7259 80.1096 18.5957C79.9111 18.4655 79.6734 18.4004 79.3967 18.4004C78.9377 18.4004 78.5976 18.5908 78.3762 18.9717C78.1581 19.3525 78.0491 19.8473 78.0491 20.4561V20.5586Z" fill="black"/>
<path d="M83.1063 16.0029V15.3828H84.8641V22.248L85.66 22.3848V23H83.1063V22.3848L83.9022 22.248V16.1396L83.1063 16.0029Z" fill="black"/>
<path d="M86.5424 22.3848L87.3383 22.248V18.4736L86.5424 18.3369V17.7168H88.3002V22.248L89.0961 22.3848V23H86.5424V22.3848ZM88.3002 16.3643H87.3383V15.3828H88.3002V16.3643Z" fill="black"/>
<path d="M89.8418 22.3848L90.6377 22.248V18.4736L89.8418 18.3369V17.7168H91.4971L91.5655 18.5029C91.7413 18.223 91.961 18.0065 92.2247 17.8535C92.4916 17.6973 92.7943 17.6191 93.1329 17.6191C93.7025 17.6191 94.1436 17.7868 94.4561 18.1221C94.7686 18.4541 94.9249 18.9684 94.9249 19.665V22.248L95.7207 22.3848V23H93.167V22.3848L93.9629 22.248V19.6846C93.9629 19.2191 93.8702 18.8887 93.6846 18.6934C93.5023 18.498 93.2224 18.4004 92.8448 18.4004C92.5681 18.4004 92.3223 18.4671 92.1075 18.6006C91.8959 18.734 91.7266 18.9163 91.5997 19.1475V22.248L92.3956 22.3848V23H89.8418V22.3848Z" fill="black"/>
<path d="M98.9323 23.1025C98.1966 23.1025 97.6106 22.8584 97.1745 22.3701C96.7415 21.8786 96.525 21.2422 96.525 20.4609V20.2461C96.525 19.4941 96.748 18.8691 97.194 18.3711C97.6432 17.8698 98.1738 17.6191 98.7858 17.6191C99.4954 17.6191 100.033 17.834 100.397 18.2637C100.765 18.6934 100.949 19.2663 100.949 19.9824V20.583H97.5211L97.5065 20.6074C97.5163 21.1152 97.6448 21.5335 97.8922 21.8623C98.1396 22.1878 98.4863 22.3506 98.9323 22.3506C99.2578 22.3506 99.5426 22.305 99.7868 22.2139C100.034 22.1195 100.247 21.9909 100.426 21.8281L100.802 22.4531C100.614 22.6354 100.363 22.79 100.05 22.917C99.7412 23.0407 99.3685 23.1025 98.9323 23.1025ZM98.7858 18.376C98.4635 18.376 98.1885 18.5127 97.9606 18.7861C97.7327 19.0563 97.5928 19.3965 97.5407 19.8066L97.5504 19.8311H99.987V19.7041C99.987 19.3265 99.886 19.0107 99.6842 18.7568C99.4824 18.5029 99.1829 18.376 98.7858 18.376Z" fill="black"/>
<path d="M103.286 23H102.324V22.0137H103.286V23Z" fill="black"/>
<path d="M106.293 16.4424V17.7168H107.294V18.4297H106.293V21.6377C106.293 21.8851 106.343 22.0592 106.444 22.1602C106.548 22.2611 106.685 22.3115 106.854 22.3115C106.939 22.3115 107.033 22.305 107.138 22.292C107.245 22.2757 107.334 22.2594 107.406 22.2432L107.538 22.9023C107.447 22.9609 107.313 23.0081 107.138 23.0439C106.962 23.083 106.786 23.1025 106.61 23.1025C106.22 23.1025 105.909 22.9854 105.678 22.751C105.446 22.5133 105.331 22.1423 105.331 21.6377V18.4297H104.496V17.7168H105.331V16.4424H106.293Z" fill="black"/>
<path d="M108.332 20.3096C108.332 19.5283 108.544 18.8854 108.967 18.3809C109.39 17.873 109.965 17.6191 110.691 17.6191C111.42 17.6191 111.996 17.8714 112.419 18.376C112.846 18.8805 113.059 19.5251 113.059 20.3096V20.417C113.059 21.2048 112.847 21.8493 112.424 22.3506C112.001 22.8519 111.427 23.1025 110.701 23.1025C109.968 23.1025 109.39 22.8519 108.967 22.3506C108.544 21.846 108.332 21.2015 108.332 20.417V20.3096ZM109.294 20.417C109.294 20.9769 109.412 21.4391 109.646 21.8037C109.884 22.1683 110.235 22.3506 110.701 22.3506C111.156 22.3506 111.503 22.1683 111.741 21.8037C111.978 21.4391 112.097 20.9769 112.097 20.417V20.3096C112.097 19.7562 111.978 19.2956 111.741 18.9277C111.503 18.5599 111.153 18.376 110.691 18.376C110.229 18.376 109.88 18.5599 109.646 18.9277C109.412 19.2956 109.294 19.7562 109.294 20.3096V20.417Z" fill="black"/>
<path d="M117.652 22.3701C117.48 22.611 117.268 22.7933 117.018 22.917C116.77 23.0407 116.482 23.1025 116.153 23.1025C115.509 23.1025 115.004 22.8698 114.64 22.4043C114.278 21.9355 114.098 21.3203 114.098 20.5586V20.4561C114.098 19.6064 114.278 18.9212 114.64 18.4004C115.004 17.8796 115.512 17.6191 116.163 17.6191C116.476 17.6191 116.751 17.6777 116.988 17.7949C117.229 17.9089 117.434 18.0749 117.604 18.293V16.1396L116.808 16.0029V15.3828H118.565V22.248L119.361 22.3848V23H117.731L117.652 22.3701ZM115.06 20.5586C115.06 21.0892 115.169 21.5156 115.387 21.8379C115.605 22.1602 115.942 22.3213 116.398 22.3213C116.684 22.3213 116.925 22.2562 117.12 22.126C117.315 21.9958 117.477 21.8118 117.604 21.5742V19.123C117.48 18.9017 117.319 18.7259 117.12 18.5957C116.922 18.4655 116.684 18.4004 116.407 18.4004C115.948 18.4004 115.608 18.5908 115.387 18.9717C115.169 19.3525 115.06 19.8473 115.06 20.4561V20.5586Z" fill="black"/>
<path d="M123.696 23C123.667 22.8568 123.644 22.7282 123.628 22.6143C123.611 22.5003 123.6 22.3864 123.593 22.2725C123.408 22.5101 123.175 22.7087 122.895 22.8682C122.618 23.0244 122.322 23.1025 122.006 23.1025C121.456 23.1025 121.038 22.9691 120.752 22.7021C120.465 22.432 120.322 22.0527 120.322 21.5645C120.322 21.0632 120.524 20.6774 120.927 20.4072C121.334 20.1338 121.891 19.9971 122.597 19.9971H123.589V19.3818C123.589 19.0726 123.491 18.8285 123.296 18.6494C123.1 18.4671 122.828 18.376 122.48 18.376C122.239 18.376 122.026 18.4069 121.84 18.4688C121.658 18.5306 121.51 18.6152 121.396 18.7227L121.294 19.2793H120.551V18.2539C120.792 18.0618 121.084 17.9089 121.425 17.7949C121.767 17.6777 122.138 17.6191 122.539 17.6191C123.138 17.6191 123.623 17.7721 123.994 18.0781C124.365 18.3841 124.55 18.8219 124.55 19.3916V21.9355C124.55 22.0039 124.55 22.0706 124.55 22.1357C124.554 22.2008 124.559 22.266 124.565 22.3311L124.956 22.3848V23H123.696ZM122.148 22.2969C122.467 22.2969 122.758 22.2204 123.022 22.0674C123.286 21.9144 123.475 21.7305 123.589 21.5156V20.6465H122.563C122.169 20.6465 121.857 20.7376 121.626 20.9199C121.398 21.1022 121.284 21.3236 121.284 21.584C121.284 21.8151 121.355 21.9925 121.499 22.1162C121.642 22.2367 121.858 22.2969 122.148 22.2969Z" fill="black"/>
<path d="M130.848 18.3369L130.374 18.4102L128.363 23.8105C128.229 24.1654 128.037 24.4746 127.786 24.7383C127.536 25.002 127.199 25.1338 126.776 25.1338C126.701 25.1338 126.603 25.124 126.483 25.1045C126.362 25.0882 126.269 25.0719 126.204 25.0557L126.302 24.2988C126.282 24.2956 126.339 24.2988 126.473 24.3086C126.61 24.3184 126.696 24.3232 126.732 24.3232C126.937 24.3232 127.103 24.2337 127.23 24.0547C127.357 23.8789 127.467 23.6755 127.562 23.4443L127.791 22.8975L126.048 18.415L125.565 18.3369V17.7168H127.698V18.3369L127.103 18.4346L128.016 21.042L128.192 21.7158H128.221L129.32 18.4346L128.719 18.3369V17.7168H130.848V18.3369Z" fill="black"/>
</svg>
