<svg width="24" height="24" viewBox="0 0 24 24" fill="none" xmlns="http://www.w3.org/2000/svg">
<path d="M17.2929 12.2929C17.6834 11.9024 18.3166 11.9024 18.7071 12.2929C19.0976 12.6834 19.0976 13.3166 18.7071 13.7071L12.7071 19.7071C12.3285 20.0857 11.7189 20.0989 11.3243 19.7372L5.32427 14.2372C4.91716 13.864 4.88965 13.2314 5.26285 12.8243C5.63604 12.4172 6.26861 12.3897 6.67572 12.7628L11.9699 17.6159L17.2929 12.2929Z" fill="black"/>
<path opacity="0.3" d="M17.2929 5.29289C17.6834 4.90237 18.3166 4.90237 18.7071 5.29289C19.0976 5.68342 19.0976 6.31658 18.7071 6.70711L12.7071 12.7071C12.3285 13.0857 11.7189 13.0989 11.3243 12.7372L5.32428 7.23715C4.91716 6.86396 4.88965 6.23139 5.26285 5.82427C5.63604 5.41715 6.26861 5.38965 6.67573 5.76284L11.9699 10.6159L17.2929 5.29289Z" fill="black"/>
</svg>
