<svg width="32" height="32" viewBox="0 0 32 32" fill="none" xmlns="http://www.w3.org/2000/svg">
<path fill-rule="evenodd" clip-rule="evenodd" d="M21.3196 8.84553L11.82 14.621C11.5628 13.6576 11.0427 12.8015 10.3411 12.1344L20.1033 6.38336C20.2892 7.31442 20.7175 8.158 21.3196 8.84553ZM10.4505 19.7586C11.0932 19.1116 11.5712 18.3006 11.816 17.3939L21.4641 22.996C20.847 23.6462 20.3921 24.4519 20.1642 25.3482L10.4505 19.7586Z" fill="black"/>
<path opacity="0.7" fill-rule="evenodd" clip-rule="evenodd" d="M25.3333 9.33331C27.5425 9.33331 29.3333 7.54245 29.3333 5.33331C29.3333 3.12417 27.5425 1.33331 25.3333 1.33331C23.1242 1.33331 21.3333 3.12417 21.3333 5.33331C21.3333 7.54245 23.1242 9.33331 25.3333 9.33331Z" fill="black"/>
<path opacity="0.7" fill-rule="evenodd" clip-rule="evenodd" d="M25.3333 30.6667C27.5425 30.6667 29.3333 28.8758 29.3333 26.6667C29.3333 24.4575 27.5425 22.6667 25.3333 22.6667C23.1242 22.6667 21.3333 24.4575 21.3333 26.6667C21.3333 28.8758 23.1242 30.6667 25.3333 30.6667Z" fill="black"/>
<path opacity="0.7" fill-rule="evenodd" clip-rule="evenodd" d="M6.66667 20C8.87581 20 10.6667 18.2091 10.6667 16C10.6667 13.7909 8.87581 12 6.66667 12C4.45753 12 2.66667 13.7909 2.66667 16C2.66667 18.2091 4.45753 20 6.66667 20Z" fill="black"/>
</svg>
