<svg width="191" height="182" viewBox="0 0 191 182" fill="none" xmlns="http://www.w3.org/2000/svg">
<g opacity="0.87">
<path d="M10.0226 144.98C10.393 145.021 10.8527 145.048 11.4015 145.062C11.9503 145.076 12.9381 145.082 14.365 145.082H17.7813C18.4536 145.082 19.1465 145.076 19.8599 145.062C20.5734 145.048 21.328 145.028 22.1238 145V136.686C22.1238 135.725 21.9248 134.984 21.5269 134.463C21.1291 133.942 20.4979 133.585 19.6336 133.393V132.817C20.6077 132.872 21.5887 132.913 22.5765 132.94C23.5781 132.968 24.5934 132.981 25.6224 132.981C26.6514 132.981 27.6599 132.968 28.6477 132.94C29.6493 132.913 30.6646 132.872 31.6936 132.817V133.393C30.8155 133.544 30.1706 133.88 29.759 134.401C29.3612 134.923 29.1622 135.684 29.1622 136.686V150.763C29.1622 154.371 29.3749 156.731 29.8002 157.842C30.2255 158.94 31.0213 159.619 32.1875 159.88V160.415C31.2957 160.374 30.3696 160.339 29.4092 160.312C28.4488 160.298 27.1865 160.291 25.6224 160.291C24.0583 160.291 22.8029 160.298 21.8562 160.312C20.9233 160.339 20.0177 160.374 19.1396 160.415L19.1191 159.88C20.2715 159.646 21.0605 159.015 21.4858 157.986C21.9111 156.944 22.1238 154.536 22.1238 150.763V146.626C21.671 146.599 21.1565 146.578 20.5802 146.564C20.004 146.551 19.071 146.544 17.7813 146.544H14.365C13.0753 146.544 12.1423 146.551 11.5661 146.564C10.9899 146.578 10.4753 146.599 10.0226 146.626V150.763C10.0226 154.453 10.2352 156.827 10.6606 157.883C11.0859 158.926 11.8817 159.592 13.0479 159.88V160.415C12.1423 160.374 11.1957 160.339 10.2078 160.312C9.23367 160.298 7.93712 160.291 6.31814 160.291C4.76776 160.291 3.53294 160.298 2.61369 160.312C1.70816 160.339 0.83693 160.374 0 160.415V159.88C1.15249 159.633 1.93454 158.995 2.34615 157.966C2.77147 156.923 2.98414 154.522 2.98414 150.763V136.686C2.98414 135.725 2.79205 134.998 2.40789 134.504C2.03744 133.997 1.39946 133.626 0.493926 133.393V132.817C1.44062 132.872 2.39417 132.913 3.35458 132.94C4.31499 132.968 5.30284 132.981 6.31814 132.981C7.40203 132.981 8.45848 132.968 9.4875 132.94C10.5165 132.913 11.5387 132.872 12.554 132.817V133.393C11.6621 133.558 11.0173 133.901 10.6194 134.422C10.2215 134.943 10.0226 135.698 10.0226 136.686V144.98Z" fill="black"/>
<path d="M49.8975 145.165C49.8426 143.271 49.4516 141.783 48.7244 140.699C47.9973 139.601 47.0437 139.052 45.8638 139.052C44.6838 139.052 43.696 139.588 42.9002 140.658C42.1045 141.714 41.5762 143.217 41.3155 145.165H49.8975ZM57.08 146.667H41.2744L41.2538 146.811C41.2126 147.662 41.1921 148.293 41.1921 148.705C41.1921 151.874 41.83 154.35 43.106 156.134C44.3957 157.918 46.1725 158.809 48.4363 158.809C50.3297 158.809 51.9418 158.158 53.2727 156.854C54.6035 155.537 55.6051 153.603 56.2774 151.051L57.4093 152.08C56.5449 155.002 55.1798 157.197 53.3138 158.665C51.4616 160.12 49.1017 160.847 46.2342 160.847C42.667 160.847 39.7652 159.77 37.5288 157.616C35.3061 155.448 34.1948 152.642 34.1948 149.198C34.1948 145.837 35.2924 143.086 37.4876 140.946C39.6966 138.805 42.5435 137.735 46.0284 137.735C49.1566 137.735 51.6811 138.51 53.602 140.061C55.5228 141.611 56.6821 143.813 57.08 146.667Z" fill="black"/>
<path d="M75.1193 148.025C75.0095 148.012 74.886 148.005 74.7488 148.005C74.6116 147.991 74.4127 147.984 74.152 147.984C71.9019 147.984 70.1732 148.506 68.9658 149.548C67.7584 150.591 67.1547 152.093 67.1547 154.055C67.1547 155.551 67.4703 156.751 68.1014 157.657C68.7463 158.549 69.5969 158.995 70.6534 158.995C72.2175 158.995 73.3494 158.24 74.0491 156.731C74.7626 155.222 75.1193 152.759 75.1193 149.343V148.025ZM84.154 159.653L84.1334 160.374C82.7203 160.346 81.657 160.326 80.9435 160.312C80.23 160.298 79.5715 160.291 78.9678 160.291H77.1156C76.7726 159.756 76.4776 159.207 76.2306 158.645C75.9974 158.069 75.7984 157.465 75.6338 156.834C74.838 158.233 73.8845 159.255 72.7731 159.9C71.6755 160.531 70.3104 160.847 68.6777 160.847C66.112 160.847 64.0197 160.216 62.4007 158.954C60.7954 157.691 59.9928 156.086 59.9928 154.138C59.9928 151.819 61.2413 150.056 63.7384 148.849C66.2355 147.628 70.0291 146.935 75.1193 146.77V146.585C75.1193 144.129 74.694 142.263 73.8433 140.987C72.9927 139.697 71.751 139.052 70.1183 139.052C68.4719 139.052 67.1341 139.615 66.1051 140.74C65.0761 141.865 64.2323 143.69 63.5738 146.214H62.9975L61.0424 139.937C62.5928 139.196 64.1912 138.648 65.8376 138.291C67.484 137.921 69.1922 137.735 70.9621 137.735C72.9241 137.735 74.6391 137.975 76.1071 138.456C77.5752 138.936 78.7208 139.642 79.544 140.575C80.2163 141.275 80.6828 142.112 80.9435 143.086C81.2179 144.047 81.3551 145.789 81.3551 148.314V150.269C81.3551 153.877 81.554 156.285 81.9519 157.492C82.3635 158.7 83.0976 159.42 84.154 159.653Z" fill="black"/>
<path d="M98.1184 139.546C96.3211 139.546 94.9285 140.397 93.9406 142.098C92.9665 143.8 92.4794 146.228 92.4794 149.384C92.4794 152.594 92.9665 155.05 93.9406 156.751C94.9285 158.439 96.3554 159.283 98.2213 159.283C99.9912 159.283 101.343 158.439 102.276 156.751C103.222 155.05 103.696 152.594 103.696 149.384C103.696 146.187 103.215 143.752 102.255 142.078C101.308 140.39 99.9295 139.546 98.1184 139.546ZM104.066 157.04C103.215 158.357 102.2 159.331 101.02 159.962C99.854 160.579 98.4545 160.888 96.8218 160.888C93.529 160.888 90.8467 159.838 88.775 157.739C86.7169 155.64 85.6879 152.896 85.6879 149.507C85.6879 146.187 86.7238 143.409 88.7955 141.172C90.881 138.936 93.4741 137.818 96.5749 137.818C98.0292 137.818 99.3464 138.099 100.526 138.661C101.706 139.21 102.763 140.04 103.696 141.152V135.883C103.696 134.003 103.538 132.837 103.222 132.384C102.92 131.918 102.344 131.65 101.494 131.582V131.129C103.071 130.896 104.546 130.656 105.918 130.409C107.29 130.148 108.587 129.867 109.808 129.565C109.753 130.951 109.712 132.288 109.685 133.578C109.657 134.868 109.643 136.103 109.643 137.283V150.474C109.643 154.069 109.835 156.484 110.22 157.719C110.604 158.954 111.297 159.688 112.298 159.921V160.374C111.845 160.346 111.365 160.326 110.858 160.312C110.35 160.298 109.602 160.291 108.614 160.291C107.709 160.291 107.043 160.298 106.618 160.312C106.193 160.326 105.809 160.346 105.466 160.374C105.177 159.866 104.917 159.338 104.683 158.789C104.45 158.226 104.244 157.643 104.066 157.04Z" fill="black"/>
<path d="M116.261 135.842C116.261 134.045 116.096 132.899 115.767 132.405C115.451 131.911 114.827 131.623 113.894 131.541V131.088C115.554 130.882 117.098 130.656 118.524 130.409C119.951 130.148 121.262 129.874 122.455 129.586C122.414 130.422 122.38 131.486 122.352 132.775C122.339 134.065 122.332 135.568 122.332 137.283V151.853C122.332 155.05 122.524 157.122 122.908 158.069C123.292 159.015 123.999 159.633 125.028 159.921L125.007 160.415C124.335 160.374 123.587 160.339 122.764 160.312C121.954 160.298 120.768 160.291 119.204 160.291C117.804 160.291 116.7 160.298 115.89 160.312C115.081 160.339 114.305 160.374 113.565 160.415V159.921C114.594 159.578 115.3 158.954 115.684 158.048C116.068 157.129 116.261 155.18 116.261 152.203V135.842Z" fill="black"/>
<path d="M128.784 132.94C128.784 131.98 129.093 131.177 129.71 130.532C130.342 129.887 131.124 129.565 132.057 129.565C132.99 129.565 133.772 129.887 134.403 130.532C135.034 131.177 135.349 131.98 135.349 132.94C135.349 133.901 135.034 134.703 134.403 135.348C133.772 135.993 132.99 136.315 132.057 136.315C131.096 136.315 130.307 136 129.69 135.369C129.086 134.737 128.784 133.928 128.784 132.94ZM135.308 138.332C135.267 139.196 135.233 140.157 135.205 141.213C135.192 142.27 135.185 143.882 135.185 146.05V151.853C135.185 155.05 135.377 157.122 135.761 158.069C136.145 159.015 136.852 159.633 137.881 159.921L137.86 160.415C137.188 160.374 136.44 160.339 135.617 160.312C134.807 160.298 133.621 160.291 132.057 160.291C130.657 160.291 129.553 160.298 128.743 160.312C127.934 160.339 127.159 160.374 126.418 160.415V159.921C127.433 159.578 128.133 158.947 128.517 158.027C128.915 157.108 129.114 155.167 129.114 152.203V144.609C129.114 142.812 128.949 141.666 128.62 141.172C128.304 140.678 127.68 140.39 126.747 140.308V139.814C128.558 139.581 130.156 139.347 131.542 139.114C132.942 138.867 134.197 138.607 135.308 138.332Z" fill="black"/>
<path d="M138.859 160.415L138.838 159.962C139.881 159.619 140.595 158.967 140.979 158.007C141.377 157.033 141.576 154.968 141.576 151.812V144.609C141.576 142.812 141.411 141.666 141.082 141.172C140.766 140.665 140.149 140.376 139.23 140.308V139.855C140.821 139.663 142.289 139.443 143.634 139.196C144.978 138.936 146.192 138.648 147.276 138.332V143.127C148.004 141.33 148.991 139.992 150.24 139.114C151.502 138.222 153.046 137.776 154.87 137.776C157.765 137.776 159.913 138.627 161.312 140.328C162.712 142.016 163.411 144.609 163.411 148.108V151.812C163.411 155.009 163.61 157.094 164.008 158.069C164.406 159.029 165.119 159.66 166.148 159.962V160.415C165.462 160.374 164.715 160.339 163.905 160.312C163.096 160.298 161.909 160.291 160.345 160.291C158.918 160.291 157.793 160.298 156.97 160.312C156.16 160.339 155.392 160.374 154.665 160.415L154.644 159.962C155.659 159.633 156.359 159.008 156.743 158.089C157.141 157.17 157.34 155.304 157.34 152.491V148.499C157.34 145.59 156.99 143.477 156.291 142.16C155.591 140.843 154.466 140.184 152.915 140.184C151.324 140.184 150.041 140.939 149.067 142.448C148.093 143.957 147.606 145.974 147.606 148.499V151.442C147.606 154.872 147.798 157.074 148.182 158.048C148.58 159.022 149.3 159.66 150.343 159.962V160.415C149.657 160.374 148.909 160.339 148.1 160.312C147.29 160.298 146.103 160.291 144.539 160.291C143.112 160.291 141.987 160.298 141.164 160.312C140.355 160.339 139.586 160.374 138.859 160.415Z" fill="black"/>
<path d="M183.488 145.165C183.433 143.271 183.042 141.783 182.315 140.699C181.588 139.601 180.634 139.052 179.454 139.052C178.274 139.052 177.287 139.588 176.491 140.658C175.695 141.714 175.167 143.217 174.906 145.165H183.488ZM190.671 146.667H174.865L174.844 146.811C174.803 147.662 174.783 148.293 174.783 148.705C174.783 151.874 175.421 154.35 176.697 156.134C177.986 157.918 179.763 158.809 182.027 158.809C183.92 158.809 185.532 158.158 186.863 156.854C188.194 155.537 189.196 153.603 189.868 151.051L191 152.08C190.135 155.002 188.77 157.197 186.904 158.665C185.052 160.12 182.692 160.847 179.825 160.847C176.258 160.847 173.356 159.77 171.119 157.616C168.897 155.448 167.785 152.642 167.785 149.198C167.785 145.837 168.883 143.086 171.078 140.946C173.287 138.805 176.134 137.735 179.619 137.735C182.747 137.735 185.272 138.51 187.192 140.061C189.113 141.611 190.273 143.813 190.671 146.667Z" fill="black"/>
</g>
<g opacity="0.87">
<path d="M88.1382 176.464C88.1382 175.997 88.296 175.606 88.6115 175.291C88.9271 174.975 89.3147 174.818 89.7743 174.818C90.2339 174.818 90.625 174.979 90.9474 175.301C91.2767 175.617 91.4413 176.004 91.4413 176.464C91.4413 176.924 91.2767 177.321 90.9474 177.658C90.625 177.987 90.2339 178.152 89.7743 178.152C89.3147 178.152 88.9271 177.99 88.6115 177.668C88.296 177.339 88.1382 176.937 88.1382 176.464Z" fill="black"/>
<path d="M94.2306 168.016L95.1979 164.198H108.41L109.337 168.016L109.11 168.098C108.362 167.09 107.587 166.304 106.785 165.742C105.989 165.172 105.268 164.888 104.624 164.888C104.212 164.888 103.931 165.008 103.78 165.248C103.636 165.488 103.564 166.15 103.564 167.234V173.089C103.564 174.934 103.67 176.121 103.883 176.649C104.102 177.171 104.517 177.503 105.128 177.647L105.118 177.915C104.651 177.894 104.167 177.877 103.667 177.863C103.173 177.857 102.514 177.853 101.691 177.853C100.916 177.853 100.295 177.857 99.8285 177.863C99.362 177.877 98.9092 177.894 98.4702 177.915V177.647C99.0601 177.517 99.4614 177.201 99.6741 176.701C99.8936 176.193 100.003 174.989 100.003 173.089V167.234C100.003 166.15 99.9279 165.488 99.777 165.248C99.6329 165.008 99.3585 164.888 98.9538 164.888C98.3021 164.888 97.5783 165.172 96.7826 165.742C95.9868 166.304 95.215 167.09 94.4673 168.098L94.2306 168.016Z" fill="black"/>
<path d="M115.316 177.472C116.269 177.472 116.993 177.04 117.487 176.176C117.981 175.305 118.228 174.022 118.228 172.327C118.228 170.653 117.981 169.388 117.487 168.53C116.993 167.666 116.269 167.234 115.316 167.234C114.383 167.234 113.669 167.669 113.175 168.541C112.688 169.405 112.445 170.66 112.445 172.307C112.445 174.001 112.688 175.287 113.175 176.166C113.662 177.037 114.376 177.472 115.316 177.472ZM109.018 172.379C109.018 170.65 109.598 169.254 110.757 168.191C111.923 167.127 113.457 166.596 115.357 166.596C117.23 166.596 118.742 167.127 119.895 168.191C121.054 169.254 121.634 170.64 121.634 172.348C121.634 174.07 121.051 175.462 119.885 176.526C118.718 177.582 117.182 178.11 115.275 178.11C113.436 178.11 111.934 177.572 110.768 176.495C109.601 175.418 109.018 174.046 109.018 172.379Z" fill="black"/>
<path d="M129.29 167.481C128.392 167.481 127.695 167.906 127.202 168.757C126.714 169.607 126.471 170.822 126.471 172.399C126.471 174.005 126.714 175.233 127.202 176.083C127.695 176.927 128.409 177.349 129.342 177.349C130.227 177.349 130.903 176.927 131.369 176.083C131.842 175.233 132.079 174.005 132.079 172.399C132.079 170.801 131.839 169.583 131.359 168.746C130.885 167.903 130.196 167.481 129.29 167.481ZM132.264 176.227C131.839 176.886 131.331 177.373 130.741 177.689C130.158 177.997 129.459 178.152 128.642 178.152C126.996 178.152 125.655 177.627 124.619 176.577C123.59 175.528 123.075 174.156 123.075 172.461C123.075 170.801 123.593 169.412 124.629 168.294C125.672 167.175 126.968 166.616 128.519 166.616C129.246 166.616 129.904 166.757 130.494 167.038C131.084 167.313 131.613 167.728 132.079 168.283V165.649C132.079 164.709 132 164.126 131.842 163.9C131.691 163.666 131.403 163.533 130.978 163.498V163.272C131.767 163.155 132.504 163.035 133.19 162.912C133.876 162.782 134.525 162.641 135.135 162.49C135.108 163.183 135.087 163.852 135.073 164.497C135.06 165.141 135.053 165.759 135.053 166.349V172.945C135.053 174.742 135.149 175.949 135.341 176.567C135.533 177.184 135.88 177.551 136.38 177.668V177.894C136.154 177.881 135.914 177.87 135.66 177.863C135.406 177.857 135.032 177.853 134.538 177.853C134.086 177.853 133.753 177.857 133.54 177.863C133.328 177.87 133.136 177.881 132.964 177.894C132.82 177.64 132.69 177.376 132.573 177.102C132.456 176.821 132.353 176.529 132.264 176.227Z" fill="black"/>
<path d="M144.809 171.72C144.754 171.713 144.692 171.71 144.623 171.71C144.555 171.703 144.455 171.7 144.325 171.7C143.2 171.7 142.336 171.96 141.732 172.482C141.128 173.003 140.826 173.754 140.826 174.735C140.826 175.483 140.984 176.083 141.3 176.536C141.622 176.982 142.047 177.205 142.576 177.205C143.358 177.205 143.924 176.828 144.274 176.073C144.63 175.318 144.809 174.087 144.809 172.379V171.72ZM149.326 177.534L149.316 177.894C148.609 177.881 148.077 177.87 147.721 177.863C147.364 177.857 147.035 177.853 146.733 177.853H145.807C145.635 177.586 145.488 177.311 145.364 177.03C145.248 176.742 145.148 176.44 145.066 176.124C144.668 176.824 144.191 177.335 143.636 177.658C143.087 177.973 142.404 178.131 141.588 178.131C140.305 178.131 139.259 177.815 138.449 177.184C137.647 176.553 137.245 175.751 137.245 174.776C137.245 173.617 137.87 172.736 139.118 172.132C140.367 171.521 142.264 171.175 144.809 171.093V171C144.809 169.772 144.596 168.839 144.171 168.201C143.745 167.556 143.124 167.234 142.308 167.234C141.485 167.234 140.816 167.515 140.302 168.078C139.787 168.64 139.365 169.552 139.036 170.815H138.748L137.77 167.676C138.545 167.306 139.345 167.031 140.168 166.853C140.991 166.668 141.845 166.575 142.73 166.575C143.711 166.575 144.569 166.695 145.303 166.935C146.037 167.175 146.609 167.529 147.021 167.995C147.357 168.345 147.59 168.764 147.721 169.251C147.858 169.731 147.927 170.602 147.927 171.864V172.842C147.927 174.646 148.026 175.85 148.225 176.454C148.431 177.057 148.798 177.418 149.326 177.534Z" fill="black"/>
<path d="M150.479 181.897L151.848 178.172L152.146 178.254C152.229 178.673 152.366 178.978 152.558 179.17C152.757 179.362 153.028 179.458 153.371 179.458C153.837 179.458 154.208 179.321 154.482 179.047C154.763 178.772 154.904 178.402 154.904 177.935C154.904 177.668 154.859 177.38 154.77 177.071C154.681 176.762 154.544 176.413 154.359 176.022L150.901 168.808L150.891 168.798C150.376 167.741 149.91 167.155 149.491 167.038V166.812C150.026 166.832 150.541 166.85 151.035 166.863C151.536 166.87 152.026 166.874 152.506 166.874C152.987 166.874 153.456 166.87 153.916 166.863C154.383 166.85 154.839 166.832 155.285 166.812V167.038C154.942 167.169 154.684 167.34 154.513 167.553C154.341 167.765 154.256 168.016 154.256 168.304C154.256 168.496 154.287 168.705 154.348 168.932C154.41 169.158 154.496 169.384 154.606 169.611L156.993 174.231L158.886 169.611C158.989 169.357 159.068 169.117 159.123 168.89C159.178 168.664 159.205 168.469 159.205 168.304C159.205 167.954 159.106 167.68 158.907 167.481C158.715 167.275 158.406 167.127 157.981 167.038V166.812C158.317 166.832 158.663 166.85 159.02 166.863C159.377 166.87 159.74 166.874 160.111 166.874C160.488 166.874 160.869 166.87 161.253 166.863C161.644 166.85 162.042 166.832 162.447 166.812V167.038C161.973 167.285 161.555 167.618 161.191 168.036C160.828 168.455 160.426 169.107 159.987 169.991L156.89 176.227C155.731 178.567 154.75 180.114 153.947 180.868C153.151 181.623 152.235 182 151.199 182C151.069 182 150.942 181.99 150.819 181.969C150.702 181.955 150.589 181.931 150.479 181.897Z" fill="black"/>
</g>
<g opacity="0.87">
<path d="M31.0723 123.526L32.0395 119.708H45.2521L46.1782 123.526L45.9518 123.608C45.204 122.6 44.4288 121.814 43.6262 121.252C42.8304 120.682 42.1101 120.398 41.4653 120.398C41.0537 120.398 40.7724 120.518 40.6215 120.758C40.4774 120.998 40.4054 121.66 40.4054 122.744V128.599C40.4054 130.444 40.5117 131.631 40.7244 132.159C40.9439 132.681 41.359 133.013 41.9695 133.157L41.9592 133.425C41.4927 133.404 41.0091 133.387 40.5083 133.373C40.0144 133.367 39.3558 133.363 38.5326 133.363C37.7574 133.363 37.1366 133.367 36.6701 133.373C36.2036 133.387 35.7508 133.404 35.3118 133.425V133.157C35.9018 133.027 36.3031 132.711 36.5157 132.211C36.7353 131.703 36.845 130.499 36.845 128.599V122.744C36.845 121.66 36.7696 120.998 36.6186 120.758C36.4746 120.518 36.2002 120.398 35.7954 120.398C35.1437 120.398 34.42 120.682 33.6242 121.252C32.8284 121.814 32.0567 122.6 31.3089 123.608L31.0723 123.526Z" fill="black"/>
<path d="M46.5699 133.425L46.5596 133.199C47.081 133.027 47.4377 132.701 47.6298 132.221C47.8287 131.734 47.9282 130.701 47.9282 129.124V121.159C47.9282 120.233 47.8527 119.653 47.7018 119.42C47.5509 119.187 47.2559 119.05 46.8168 119.008V118.782C47.5097 118.693 48.206 118.583 48.9057 118.453C49.6055 118.316 50.2983 118.165 50.9843 118C50.9569 118.569 50.9363 119.18 50.9226 119.832C50.9089 120.476 50.902 121.152 50.902 121.859V124.534C51.2587 123.718 51.739 123.111 52.3426 122.713C52.9463 122.308 53.6906 122.106 54.5756 122.106C56.0162 122.106 57.0864 122.531 57.7861 123.382C58.4927 124.232 58.846 125.529 58.846 127.271V129.124C58.846 130.722 58.9455 131.765 59.1444 132.252C59.3434 132.732 59.7001 133.048 60.2146 133.199V133.425C59.8716 133.404 59.4977 133.387 59.093 133.373C58.6882 133.367 58.0948 133.363 57.3128 133.363C56.5993 133.363 56.0368 133.367 55.6252 133.373C55.2204 133.387 54.8363 133.404 54.4727 133.425L54.4624 133.199C54.9701 133.034 55.3199 132.722 55.512 132.262C55.7109 131.796 55.8104 130.856 55.8104 129.443V127.467C55.8104 126.013 55.6355 124.956 55.2856 124.298C54.9358 123.639 54.3732 123.31 53.598 123.31C52.8023 123.31 52.1608 123.687 51.6738 124.442C51.1867 125.196 50.9432 126.205 50.9432 127.467V128.938C50.9432 130.653 51.0392 131.754 51.2313 132.242C51.4302 132.729 51.7904 133.048 52.3118 133.199V133.425C51.9688 133.404 51.5949 133.387 51.1901 133.373C50.7854 133.367 50.192 133.363 49.41 133.363C48.6965 133.363 48.134 133.367 47.7224 133.373C47.3176 133.387 46.9335 133.404 46.5699 133.425Z" fill="black"/>
<path d="M68.9722 125.8C68.9447 124.853 68.7492 124.109 68.3856 123.567C68.022 123.018 67.5453 122.744 66.9553 122.744C66.3653 122.744 65.8714 123.011 65.4735 123.546C65.0756 124.075 64.8115 124.826 64.6812 125.8H68.9722ZM72.5634 126.551H64.6606L64.6503 126.623C64.6297 127.048 64.6194 127.364 64.6194 127.57C64.6194 129.154 64.9384 130.393 65.5764 131.285C66.2213 132.176 67.1097 132.622 68.2416 132.622C69.1883 132.622 69.9943 132.296 70.6597 131.645C71.3252 130.986 71.826 130.019 72.1621 128.743L72.7281 129.257C72.2959 130.719 71.6133 131.816 70.6803 132.55C69.7542 133.277 68.5743 133.641 67.1405 133.641C65.3569 133.641 63.906 133.102 62.7878 132.025C61.6765 130.942 61.1208 129.539 61.1208 127.817C61.1208 126.136 61.6696 124.761 62.7672 123.69C63.8717 122.62 65.2952 122.085 67.0376 122.085C68.6017 122.085 69.864 122.473 70.8244 123.248C71.7848 124.023 72.3645 125.124 72.5634 126.551Z" fill="black"/>
</g>
<g filter="url(#filter0_d)">
<path d="M47 18C47 9.16345 54.1634 2 63 2H127C135.837 2 143 9.16344 143 18V82C143 90.8366 135.837 98 127 98H63C54.1634 98 47 90.8366 47 82V18Z" fill="white"/>
<path d="M48 18C48 9.71573 54.7157 3 63 3H127C135.284 3 142 9.71573 142 18V82C142 90.2843 135.284 97 127 97H63C54.7157 97 48 90.2843 48 82V18Z" stroke="black" stroke-width="2"/>
</g>
<g opacity="0.87">
<path d="M68.6001 84.7679C68.6001 84.4619 68.7036 84.2053 68.9106 83.9983C69.1177 83.7913 69.372 83.6877 69.6735 83.6877C69.9751 83.6877 70.2316 83.7935 70.4431 84.005C70.6592 84.2121 70.7672 84.4664 70.7672 84.7679C70.7672 85.0695 70.6592 85.3305 70.4431 85.551C70.2316 85.7671 69.9751 85.8751 69.6735 85.8751C69.372 85.8751 69.1177 85.7693 68.9106 85.5578C68.7036 85.3417 68.6001 85.0785 68.6001 84.7679Z" fill="black"/>
<path d="M72.5972 79.2253L73.2318 76.7207H81.9001L82.5077 79.2253L82.3592 79.2793C81.8686 78.6177 81.36 78.1024 80.8335 77.7333C80.3114 77.3598 79.8388 77.173 79.4157 77.173C79.1457 77.173 78.9612 77.2517 78.8622 77.4093C78.7676 77.5668 78.7204 78.0011 78.7204 78.7122V82.5536C78.7204 83.7643 78.7901 84.5429 78.9297 84.8894C79.0737 85.2315 79.346 85.4498 79.7465 85.5443L79.7398 85.7198C79.4337 85.7063 79.1164 85.6951 78.7879 85.6861C78.4638 85.6816 78.0318 85.6793 77.4917 85.6793C76.9831 85.6793 76.5758 85.6816 76.2697 85.6861C75.9637 85.6951 75.6667 85.7063 75.3786 85.7198V85.5443C75.7657 85.4588 76.029 85.2517 76.1685 84.9232C76.3125 84.5901 76.3845 83.8003 76.3845 82.5536V78.7122C76.3845 78.0011 76.335 77.5668 76.236 77.4093C76.1415 77.2517 75.9614 77.173 75.6959 77.173C75.2683 77.173 74.7935 77.3598 74.2714 77.7333C73.7494 78.1024 73.243 78.6177 72.7524 79.2793L72.5972 79.2253Z" fill="black"/>
<path d="M86.4305 85.4295C87.0561 85.4295 87.531 85.146 87.855 84.5789C88.1791 84.0073 88.3411 83.1657 88.3411 82.054C88.3411 80.9558 88.1791 80.1254 87.855 79.5628C87.531 78.9958 87.0561 78.7122 86.4305 78.7122C85.8184 78.7122 85.3504 78.998 85.0263 79.5696C84.7068 80.1367 84.547 80.9603 84.547 82.0405C84.547 83.1522 84.7068 83.996 85.0263 84.5721C85.3459 85.1437 85.8139 85.4295 86.4305 85.4295ZM82.2989 82.0877C82.2989 80.9536 82.6792 80.0377 83.4398 79.3401C84.2049 78.6425 85.2108 78.2936 86.4575 78.2936C87.6862 78.2936 88.6786 78.6425 89.4348 79.3401C90.1954 80.0377 90.5757 80.9468 90.5757 82.0675C90.5757 83.1972 90.1931 84.1108 89.428 84.8084C88.6629 85.5015 87.6547 85.8481 86.4035 85.8481C85.1973 85.8481 84.2117 85.4948 83.4466 84.7882C82.6814 84.0816 82.2989 83.1814 82.2989 82.0877Z" fill="black"/>
<path d="M95.5989 78.8742C95.0093 78.8742 94.5525 79.1533 94.2285 79.7114C93.9089 80.2695 93.7491 81.0661 93.7491 82.1012C93.7491 83.1544 93.9089 83.96 94.2285 84.5181C94.5525 85.0717 95.0206 85.3485 95.6327 85.3485C96.2133 85.3485 96.6566 85.0717 96.9626 84.5181C97.2732 83.96 97.4285 83.1544 97.4285 82.1012C97.4285 81.0526 97.2709 80.2537 96.9559 79.7046C96.6453 79.151 96.193 78.8742 95.5989 78.8742ZM97.55 84.6126C97.2709 85.0447 96.9379 85.3643 96.5508 85.5713C96.1683 85.7738 95.7092 85.8751 95.1736 85.8751C94.0934 85.8751 93.2135 85.5308 92.5339 84.8422C91.8588 84.1536 91.5213 83.2534 91.5213 82.1417C91.5213 81.0526 91.8611 80.1412 92.5407 79.4076C93.2248 78.674 94.0754 78.3071 95.0926 78.3071C95.5697 78.3071 96.0017 78.3994 96.3888 78.5839C96.7759 78.764 97.1224 79.0363 97.4285 79.4008V77.6725C97.4285 77.056 97.3767 76.6734 97.2732 76.5249C97.1742 76.3718 96.9851 76.2841 96.7061 76.2616V76.1131C97.2237 76.0365 97.7075 75.9578 98.1576 75.8768C98.6076 75.7913 99.033 75.699 99.4335 75.6C99.4155 76.0545 99.402 76.4934 99.393 76.9164C99.384 77.3395 99.3795 77.7446 99.3795 78.1316V82.459C99.3795 83.6382 99.4425 84.4304 99.5685 84.8354C99.6946 85.2405 99.9218 85.4813 100.25 85.5578V85.7063C100.102 85.6973 99.9443 85.6906 99.7778 85.6861C99.6113 85.6816 99.366 85.6793 99.042 85.6793C98.7449 85.6793 98.5266 85.6816 98.3871 85.6861C98.2476 85.6906 98.1216 85.6973 98.009 85.7063C97.9145 85.5398 97.829 85.3665 97.7525 85.1865C97.676 85.0019 97.6085 84.8107 97.55 84.6126Z" fill="black"/>
<path d="M105.78 81.6557C105.744 81.6512 105.703 81.6489 105.658 81.6489C105.613 81.6444 105.548 81.6422 105.463 81.6422C104.725 81.6422 104.157 81.8132 103.761 82.1553C103.365 82.4973 103.167 82.9901 103.167 83.6337C103.167 84.1243 103.271 84.5181 103.478 84.8152C103.689 85.1077 103.968 85.254 104.315 85.254C104.828 85.254 105.199 85.0064 105.429 84.5114C105.663 84.0163 105.78 83.2084 105.78 82.0877V81.6557ZM108.744 85.47L108.737 85.7063C108.273 85.6973 107.925 85.6906 107.691 85.6861C107.456 85.6816 107.24 85.6793 107.042 85.6793H106.435C106.322 85.5038 106.226 85.3237 106.145 85.1392C106.068 84.9502 106.003 84.7522 105.949 84.5451C105.688 85.0042 105.375 85.3395 105.01 85.551C104.65 85.7581 104.202 85.8616 103.667 85.8616C102.825 85.8616 102.139 85.6545 101.608 85.2405C101.081 84.8264 100.818 84.2998 100.818 83.6607C100.818 82.9001 101.227 82.3218 102.047 81.9257C102.866 81.5252 104.11 81.2979 105.78 81.2439V81.1831C105.78 80.3775 105.64 79.7654 105.361 79.3468C105.082 78.9237 104.675 78.7122 104.139 78.7122C103.599 78.7122 103.161 78.8967 102.823 79.2658C102.485 79.6349 102.209 80.2334 101.993 81.0616H101.804L101.162 79.0025C101.671 78.7595 102.195 78.5794 102.735 78.4624C103.275 78.3409 103.836 78.2801 104.416 78.2801C105.06 78.2801 105.622 78.3589 106.104 78.5164C106.586 78.674 106.961 78.9057 107.231 79.2118C107.452 79.4413 107.605 79.7159 107.691 80.0354C107.781 80.3505 107.826 80.9221 107.826 81.7502V82.3915C107.826 83.5752 107.891 84.3651 108.021 84.7612C108.156 85.1572 108.397 85.3935 108.744 85.47Z" fill="black"/>
<path d="M109.5 88.3325L110.398 85.8886L110.594 85.9426C110.648 86.2171 110.738 86.4174 110.864 86.5434C110.994 86.6695 111.172 86.7325 111.397 86.7325C111.703 86.7325 111.946 86.6425 112.126 86.4624C112.311 86.2824 112.403 86.0394 112.403 85.7333C112.403 85.5578 112.374 85.3688 112.315 85.1662C112.257 84.9637 112.167 84.7342 112.045 84.4776L109.777 79.7451L109.77 79.7384C109.433 79.0453 109.127 78.6605 108.852 78.5839V78.4354C109.203 78.4489 109.541 78.4602 109.865 78.4692C110.193 78.4737 110.515 78.4759 110.83 78.4759C111.145 78.4759 111.454 78.4737 111.755 78.4692C112.061 78.4602 112.36 78.4489 112.653 78.4354V78.5839C112.428 78.6695 112.259 78.782 112.147 78.9215C112.034 79.061 111.978 79.2253 111.978 79.4143C111.978 79.5403 111.998 79.6776 112.039 79.8261C112.079 79.9747 112.135 80.1232 112.207 80.2717L113.774 83.3029L115.016 80.2717C115.083 80.1052 115.135 79.9477 115.171 79.7991C115.207 79.6506 115.225 79.5223 115.225 79.4143C115.225 79.1848 115.16 79.0048 115.029 78.8742C114.903 78.7392 114.701 78.6425 114.422 78.5839V78.4354C114.642 78.4489 114.87 78.4602 115.104 78.4692C115.338 78.4737 115.576 78.4759 115.819 78.4759C116.067 78.4759 116.317 78.4737 116.569 78.4692C116.825 78.4602 117.086 78.4489 117.352 78.4354V78.5839C117.041 78.746 116.767 78.9643 116.528 79.2388C116.29 79.5133 116.026 79.9409 115.738 80.5215L113.706 84.6126C112.946 86.1474 112.302 87.1623 111.775 87.6574C111.253 88.1524 110.652 88.4 109.973 88.4C109.887 88.4 109.804 88.3932 109.723 88.3797C109.647 88.3707 109.572 88.355 109.5 88.3325Z" fill="black"/>
</g>
<path d="M83.1751 46.9C83.8501 46.975 84.6876 47.025 85.6876 47.05C86.6876 47.075 88.4876 47.0875 91.0876 47.0875H97.3126C98.5376 47.0875 99.8001 47.075 101.1 47.05C102.4 47.025 103.775 46.9875 105.225 46.9375V31.7875C105.225 30.0375 104.863 28.6875 104.138 27.7375C103.413 26.7875 102.263 26.1375 100.688 25.7875V24.7375C102.463 24.8375 104.25 24.9125 106.05 24.9625C107.875 25.0125 109.725 25.0375 111.6 25.0375C113.475 25.0375 115.313 25.0125 117.113 24.9625C118.938 24.9125 120.788 24.8375 122.663 24.7375V25.7875C121.063 26.0625 119.888 26.675 119.138 27.625C118.413 28.575 118.05 29.9625 118.05 31.7875V57.4375C118.05 64.0125 118.438 68.3125 119.213 70.3375C119.988 72.3375 121.438 73.575 123.563 74.05V75.025C121.938 74.95 120.25 74.8875 118.5 74.8375C116.75 74.8125 114.45 74.8 111.6 74.8C108.75 74.8 106.463 74.8125 104.738 74.8375C103.038 74.8875 101.388 74.95 99.7876 75.025L99.7501 74.05C101.85 73.625 103.288 72.475 104.063 70.6C104.838 68.7 105.225 64.3125 105.225 57.4375V49.9C104.4 49.85 103.463 49.8125 102.413 49.7875C101.363 49.7625 99.6626 49.75 97.3126 49.75H91.0876C88.7376 49.75 87.0376 49.7625 85.9876 49.7875C84.9376 49.8125 84.0001 49.85 83.1751 49.9V57.4375C83.1751 64.1625 83.5626 68.4875 84.3376 70.4125C85.1126 72.3125 86.5626 73.525 88.6876 74.05V75.025C87.0376 74.95 85.3126 74.8875 83.5126 74.8375C81.7376 74.8125 79.3751 74.8 76.4251 74.8C73.6001 74.8 71.3501 74.8125 69.6751 74.8375C68.0251 74.8875 66.4376 74.95 64.9126 75.025V74.05C67.0126 73.6 68.4376 72.4375 69.1876 70.5625C69.9626 68.6625 70.3501 64.2875 70.3501 57.4375V31.7875C70.3501 30.0375 70.0001 28.7125 69.3001 27.8125C68.6251 26.8875 67.4626 26.2125 65.8126 25.7875V24.7375C67.5376 24.8375 69.2751 24.9125 71.0251 24.9625C72.7751 25.0125 74.5751 25.0375 76.4251 25.0375C78.4001 25.0375 80.3251 25.0125 82.2001 24.9625C84.0751 24.9125 85.9376 24.8375 87.7876 24.7375V25.7875C86.1626 26.0875 84.9876 26.7125 84.2626 27.6625C83.5376 28.6125 83.1751 29.9875 83.1751 31.7875V46.9Z" fill="black"/>
<g opacity="0.87">
<path d="M65.4 16.8263L65.8948 14.8737H72.6527L73.1263 16.8263L73.0106 16.8684C72.6281 16.3526 72.2316 15.9509 71.8211 15.6632C71.4141 15.3719 71.0456 15.2263 70.7158 15.2263C70.5053 15.2263 70.3614 15.2877 70.2842 15.4105C70.2106 15.5333 70.1737 15.8719 70.1737 16.4263V19.4211C70.1737 20.3649 70.2281 20.9719 70.3369 21.2421C70.4491 21.5088 70.6614 21.6789 70.9737 21.7526L70.9684 21.8895C70.7298 21.8789 70.4825 21.8702 70.2263 21.8632C69.9737 21.8596 69.6369 21.8579 69.2158 21.8579C68.8193 21.8579 68.5018 21.8596 68.2632 21.8632C68.0246 21.8702 67.793 21.8789 67.5684 21.8895V21.7526C67.8702 21.686 68.0755 21.5246 68.1842 21.2684C68.2965 21.0088 68.3527 20.393 68.3527 19.4211V16.4263C68.3527 15.8719 68.3141 15.5333 68.2369 15.4105C68.1632 15.2877 68.0228 15.2263 67.8158 15.2263C67.4825 15.2263 67.1123 15.3719 66.7053 15.6632C66.2983 15.9509 65.9035 16.3526 65.5211 16.8684L65.4 16.8263Z" fill="black"/>
<path d="M73.3267 21.8895L73.3214 21.7737C73.5881 21.686 73.7706 21.5193 73.8688 21.2737C73.9706 21.0246 74.0214 20.4965 74.0214 19.6895V15.6158C74.0214 15.1421 73.9828 14.8456 73.9056 14.7263C73.8284 14.607 73.6776 14.5368 73.453 14.5158V14.4C73.8074 14.3544 74.1635 14.2982 74.5214 14.2316C74.8793 14.1614 75.2337 14.0842 75.5846 14C75.5706 14.2912 75.56 14.6035 75.553 14.9368C75.546 15.2667 75.5425 15.6123 75.5425 15.9737V17.3421C75.7249 16.9246 75.9706 16.614 76.2793 16.4105C76.5881 16.2035 76.9688 16.1 77.4214 16.1C78.1583 16.1 78.7056 16.3175 79.0635 16.7526C79.4249 17.1877 79.6056 17.8509 79.6056 18.7421V19.6895C79.6056 20.507 79.6565 21.0404 79.7583 21.2895C79.86 21.5351 80.0425 21.6965 80.3056 21.7737V21.8895C80.1302 21.8789 79.939 21.8702 79.732 21.8632C79.5249 21.8596 79.2214 21.8579 78.8214 21.8579C78.4565 21.8579 78.1688 21.8596 77.9583 21.8632C77.7513 21.8702 77.5548 21.8789 77.3688 21.8895L77.3635 21.7737C77.6232 21.6895 77.8021 21.5298 77.9004 21.2947C78.0021 21.0561 78.053 20.5754 78.053 19.8526V18.8421C78.053 18.0982 77.9635 17.5579 77.7846 17.2211C77.6056 16.8842 77.3179 16.7158 76.9214 16.7158C76.5144 16.7158 76.1863 16.9088 75.9372 17.2947C75.6881 17.6807 75.5635 18.1965 75.5635 18.8421V19.5947C75.5635 20.4719 75.6127 21.0351 75.7109 21.2842C75.8127 21.5333 75.9969 21.6965 76.2635 21.7737V21.8895C76.0881 21.8789 75.8969 21.8702 75.6898 21.8632C75.4828 21.8596 75.1793 21.8579 74.7793 21.8579C74.4144 21.8579 74.1267 21.8596 73.9162 21.8632C73.7091 21.8702 73.5127 21.8789 73.3267 21.8895Z" fill="black"/>
<path d="M84.7849 17.9895C84.7709 17.5053 84.6709 17.1246 84.4849 16.8474C84.299 16.5667 84.0551 16.4263 83.7534 16.4263C83.4516 16.4263 83.199 16.5632 82.9955 16.8368C82.792 17.107 82.6569 17.4912 82.5902 17.9895H84.7849ZM86.6218 18.3737H82.5797L82.5744 18.4105C82.5639 18.6281 82.5586 18.7895 82.5586 18.8947C82.5586 19.7053 82.7218 20.3386 83.0481 20.7947C83.3779 21.2509 83.8323 21.4789 84.4113 21.4789C84.8955 21.4789 85.3077 21.3123 85.6481 20.9789C85.9884 20.6421 86.2446 20.1474 86.4165 19.4947L86.706 19.7579C86.4849 20.5053 86.1358 21.0667 85.6586 21.4421C85.1849 21.814 84.5814 22 83.8481 22C82.9358 22 82.1937 21.7246 81.6218 21.1737C81.0534 20.6193 80.7691 19.9018 80.7691 19.0211C80.7691 18.1614 81.0498 17.4579 81.6113 16.9105C82.1762 16.3632 82.9042 16.0895 83.7955 16.0895C84.5955 16.0895 85.2411 16.2877 85.7323 16.6842C86.2235 17.0807 86.52 17.6439 86.6218 18.3737Z" fill="black"/>
</g>
<defs>
<filter id="filter0_d" x="45" y="0" width="100" height="100" filterUnits="userSpaceOnUse" color-interpolation-filters="sRGB">
<feFlood flood-opacity="0" result="BackgroundImageFix"/>
<feColorMatrix in="SourceAlpha" type="matrix" values="0 0 0 0 0 0 0 0 0 0 0 0 0 0 0 0 0 0 127 0"/>
<feOffset/>
<feGaussianBlur stdDeviation="1"/>
<feColorMatrix type="matrix" values="0 0 0 0 0 0 0 0 0 0 0 0 0 0 0 0 0 0 0.14 0"/>
<feBlend mode="normal" in2="BackgroundImageFix" result="effect1_dropShadow"/>
<feBlend mode="normal" in="SourceGraphic" in2="effect1_dropShadow" result="shape"/>
</filter>
</defs>
</svg>
