<svg width="108" height="37" viewBox="0 0 108 37" fill="none" xmlns="http://www.w3.org/2000/svg">
<g opacity="0.87">
<path d="M5.6377 16.176C5.84608 16.1991 6.10462 16.2146 6.41332 16.2223C6.72202 16.23 7.27769 16.2338 8.08032 16.2338H10.002C10.3802 16.2338 10.7699 16.23 11.1712 16.2223C11.5725 16.2146 11.997 16.203 12.4446 16.1875V11.5107C12.4446 10.9704 12.3327 10.5537 12.1089 10.2604C11.8851 9.96716 11.5301 9.7665 11.0439 9.65846V9.33432C11.5918 9.36519 12.1436 9.38834 12.6993 9.40378C13.2627 9.41921 13.8338 9.42693 14.4126 9.42693C14.9914 9.42693 15.5587 9.41921 16.1143 9.40378C16.6777 9.38834 17.2488 9.36519 17.8276 9.33432V9.65846C17.3337 9.74335 16.971 9.93243 16.7395 10.2257C16.5157 10.519 16.4037 10.9473 16.4037 11.5107V19.4289C16.4037 21.4587 16.5234 22.7861 16.7626 23.4112C17.0019 24.0286 17.4495 24.4106 18.1055 24.5573V24.8583C17.6038 24.8351 17.0829 24.8158 16.5427 24.8004C16.0024 24.7927 15.2924 24.7888 14.4126 24.7888C13.5328 24.7888 12.8266 24.7927 12.2941 24.8004C11.7693 24.8158 11.26 24.8351 10.766 24.8583L10.7545 24.5573C11.4027 24.4261 11.8465 24.0711 12.0858 23.4922C12.325 22.9057 12.4446 21.5513 12.4446 19.4289V17.1021C12.1899 17.0866 11.9005 17.0751 11.5764 17.0673C11.2523 17.0596 10.7275 17.0558 10.002 17.0558H8.08032C7.35487 17.0558 6.83007 17.0596 6.50593 17.0673C6.18179 17.0751 5.89238 17.0866 5.6377 17.1021V19.4289C5.6377 21.505 5.75733 22.8401 5.99657 23.4344C6.23582 24.0209 6.68344 24.3952 7.33943 24.5573V24.8583C6.83007 24.8351 6.29756 24.8158 5.74189 24.8004C5.19394 24.7927 4.46463 24.7888 3.55395 24.7888C2.68186 24.7888 1.98728 24.7927 1.4702 24.8004C0.96084 24.8158 0.470773 24.8351 0 24.8583V24.5573C0.648278 24.4184 1.08818 24.0595 1.31971 23.4807C1.55895 22.8941 1.67858 21.5436 1.67858 19.4289V11.5107C1.67858 10.9704 1.57053 10.5614 1.35444 10.2836C1.14606 9.99803 0.787195 9.78966 0.277833 9.65846V9.33432C0.810347 9.36519 1.34672 9.38834 1.88695 9.40378C2.42718 9.41921 2.98285 9.42693 3.55395 9.42693C4.16364 9.42693 4.7579 9.41921 5.33672 9.40378C5.91554 9.38834 6.4905 9.36519 7.0616 9.33432V9.65846C6.55996 9.75107 6.19723 9.94401 5.97342 10.2373C5.74961 10.5305 5.6377 10.955 5.6377 11.5107V16.176Z" fill="black"/>
<path d="M28.0673 16.2802C28.0365 15.2151 27.8165 14.3778 27.4075 13.7681C26.9985 13.1507 26.4621 12.842 25.7984 12.842C25.1347 12.842 24.579 13.143 24.1314 13.7449C23.6838 14.3392 23.3866 15.1843 23.24 16.2802H28.0673ZM32.1075 17.1252H23.2168L23.2053 17.2063C23.1821 17.6848 23.1705 18.0398 23.1705 18.2713C23.1705 20.0541 23.5294 21.4471 24.2471 22.4504C24.9726 23.4537 25.972 23.9553 27.2454 23.9553C28.3105 23.9553 29.2173 23.5887 29.9659 22.8555C30.7145 22.1147 31.2779 21.0265 31.656 19.591L32.2927 20.1698C31.8065 21.8137 31.0386 23.0485 29.989 23.8743C28.9472 24.6923 27.6197 25.1014 26.0068 25.1014C24.0002 25.1014 22.3679 24.4955 21.1099 23.2839C19.8597 22.0645 19.2346 20.4862 19.2346 18.5491C19.2346 16.6583 19.852 15.1109 21.0868 13.907C22.3293 12.703 23.9307 12.1011 25.891 12.1011C27.6506 12.1011 29.0706 12.5371 30.1511 13.4092C31.2316 14.2813 31.8837 15.52 32.1075 17.1252Z" fill="black"/>
<path d="M42.2546 17.8893C42.1929 17.8816 42.1234 17.8777 42.0462 17.8777C41.969 17.87 41.8571 17.8661 41.7105 17.8661C40.4448 17.8661 39.4724 18.1594 38.7933 18.7459C38.1141 19.3325 37.7745 20.1775 37.7745 21.2812C37.7745 22.1224 37.952 22.7977 38.307 23.307C38.6698 23.8087 39.1483 24.0595 39.7425 24.0595C40.6223 24.0595 41.259 23.635 41.6526 22.7861C42.0539 21.9371 42.2546 20.5518 42.2546 18.6302V17.8893ZM47.3366 24.4299L47.3251 24.8351C46.5301 24.8197 45.932 24.8081 45.5307 24.8004C45.1294 24.7927 44.759 24.7888 44.4194 24.7888H43.3775C43.1846 24.4878 43.0186 24.1791 42.8797 23.8627C42.7485 23.5385 42.6366 23.199 42.544 22.844C42.0964 23.6312 41.56 24.2061 40.9349 24.5688C40.3175 24.9239 39.5496 25.1014 38.6312 25.1014C37.188 25.1014 36.0111 24.7464 35.1004 24.0363C34.1974 23.3263 33.746 22.4234 33.746 21.3275C33.746 20.0232 34.4483 19.0315 35.8529 18.3523C37.2575 17.6655 39.3914 17.2757 42.2546 17.1831V17.0789C42.2546 15.6975 42.0154 14.6479 41.5369 13.9301C41.0584 13.2047 40.3599 12.842 39.4415 12.842C38.5154 12.842 37.763 13.1584 37.1841 13.7912C36.6053 14.4241 36.1307 15.4505 35.7602 16.8705H35.4361L34.3363 13.3397C35.2084 12.923 36.1075 12.6143 37.0336 12.4136C37.9598 12.2053 38.9206 12.1011 39.9162 12.1011C41.0198 12.1011 41.9845 12.2361 42.8103 12.5062C43.6361 12.7764 44.2805 13.1738 44.7435 13.6986C45.1217 14.0922 45.3841 14.563 45.5307 15.1109C45.6851 15.6512 45.7622 16.6313 45.7622 18.0513V19.1511C45.7622 21.1808 45.8742 22.5353 46.098 23.2144C46.3295 23.8936 46.7424 24.2987 47.3366 24.4299Z" fill="black"/>
<path d="M55.1916 13.1198C54.1806 13.1198 53.3973 13.5983 52.8416 14.5553C52.2936 15.5123 52.0197 16.8783 52.0197 18.6533C52.0197 20.4592 52.2936 21.8407 52.8416 22.7977C53.3973 23.7469 54.1999 24.2216 55.2495 24.2216C56.2451 24.2216 57.0052 23.7469 57.53 22.7977C58.0625 21.8407 58.3288 20.4592 58.3288 18.6533C58.3288 16.8551 58.0587 15.4852 57.5185 14.5437C56.9859 13.5944 56.2103 13.1198 55.1916 13.1198ZM58.5372 22.9597C58.0587 23.7006 57.4876 24.2486 56.8239 24.6036C56.1679 24.9509 55.3807 25.1245 54.4623 25.1245C52.6101 25.1245 51.1013 24.5341 49.9359 23.3533C48.7783 22.1725 48.1995 20.629 48.1995 18.7228C48.1995 16.8551 48.7821 15.2923 49.9475 14.0343C51.1206 12.7764 52.5792 12.1474 54.3234 12.1474C55.1414 12.1474 55.8823 12.3056 56.546 12.622C57.2098 12.9307 57.804 13.3976 58.3288 14.0228V11.0592C58.3288 10.0019 58.2401 9.34589 58.0625 9.09121C57.8928 8.82882 57.5686 8.67832 57.0901 8.63974V8.38505C57.9776 8.25386 58.8073 8.1188 59.5791 7.97988C60.3508 7.83325 61.0801 7.67504 61.767 7.50525C61.7361 8.28473 61.713 9.03719 61.6975 9.76264C61.6821 10.4881 61.6744 11.1827 61.6744 11.8464V19.2669C61.6744 21.2889 61.7824 22.6472 61.9985 23.3417C62.2146 24.0363 62.6043 24.4492 63.1677 24.5804V24.8351C62.9131 24.8197 62.6429 24.8081 62.3574 24.8004C62.0718 24.7927 61.6512 24.7888 61.0956 24.7888C60.5862 24.7888 60.2119 24.7927 59.9726 24.8004C59.7334 24.8081 59.5173 24.8197 59.3244 24.8351C59.1623 24.5496 59.0157 24.2524 58.8845 23.9437C58.7533 23.6273 58.6375 23.2993 58.5372 22.9597Z" fill="black"/>
<path d="M65.3966 11.036C65.3966 10.025 65.304 9.38062 65.1187 9.10279C64.9412 8.82496 64.5901 8.66289 64.0653 8.61658V8.3619C64.9991 8.24614 65.8673 8.1188 66.67 7.97988C67.4726 7.83325 68.2096 7.67889 68.8811 7.51683C68.8579 7.9876 68.8386 8.58571 68.8232 9.31117C68.8155 10.0366 68.8116 10.8817 68.8116 11.8464V20.0425C68.8116 21.8407 68.9197 23.006 69.1357 23.5385C69.3518 24.0711 69.7493 24.4184 70.3281 24.5804L70.3165 24.8583C69.9384 24.8351 69.5178 24.8158 69.0547 24.8004C68.5994 24.7927 67.9318 24.7888 67.052 24.7888C66.2648 24.7888 65.6435 24.7927 65.1882 24.8004C64.7329 24.8158 64.2968 24.8351 63.8801 24.8583V24.5804C64.4589 24.3875 64.8563 24.0363 65.0724 23.527C65.2885 23.0099 65.3966 21.914 65.3966 20.2393V11.036Z" fill="black"/>
<path d="M72.4412 9.40378C72.4412 8.86355 72.6148 8.41207 72.9621 8.04934C73.3171 7.68661 73.757 7.50525 74.2818 7.50525C74.8066 7.50525 75.2465 7.68661 75.6016 8.04934C75.9566 8.41207 76.1341 8.86355 76.1341 9.40378C76.1341 9.94401 75.9566 10.3955 75.6016 10.7582C75.2465 11.1209 74.8066 11.3023 74.2818 11.3023C73.7416 11.3023 73.2979 11.1248 72.9506 10.7698C72.611 10.4148 72.4412 9.95944 72.4412 9.40378ZM76.1109 12.4368C76.0878 12.923 76.0685 13.4632 76.053 14.0575C76.0453 14.6517 76.0415 15.5586 76.0415 16.7779V20.0425C76.0415 21.8407 76.1495 23.006 76.3656 23.5385C76.5817 24.0711 76.9791 24.4184 77.558 24.5804L77.5464 24.8583C77.1682 24.8351 76.7476 24.8158 76.2846 24.8004C75.8292 24.7927 75.1617 24.7888 74.2818 24.7888C73.4947 24.7888 72.8734 24.7927 72.418 24.8004C71.9627 24.8158 71.5267 24.8351 71.1099 24.8583V24.5804C71.681 24.3875 72.0746 24.0325 72.2907 23.5154C72.5145 22.9983 72.6264 21.9063 72.6264 20.2393V15.9676C72.6264 14.9566 72.5338 14.3122 72.3486 14.0343C72.1711 13.7565 71.8199 13.5944 71.2951 13.5481V13.2703C72.3139 13.1391 73.213 13.0079 73.9924 12.8767C74.7796 12.7378 75.4858 12.5911 76.1109 12.4368Z" fill="black"/>
<path d="M78.1082 24.8583L78.0966 24.6036C78.6832 24.4106 79.0845 24.0441 79.3006 23.5038C79.5244 22.9559 79.6363 21.7944 79.6363 20.0193V15.9676C79.6363 14.9566 79.5437 14.3122 79.3585 14.0343C79.181 13.7488 78.8337 13.5867 78.3166 13.5481V13.2934C79.2118 13.1854 80.0376 13.0619 80.794 12.923C81.5503 12.7764 82.2333 12.6143 82.843 12.4368V15.1341C83.252 14.1231 83.8077 13.3706 84.51 12.8767C85.22 12.3751 86.0882 12.1242 87.1147 12.1242C88.7431 12.1242 89.9509 12.6027 90.7381 13.5597C91.5253 14.509 91.9189 15.9676 91.9189 17.9356V20.0193C91.9189 21.8175 92.0308 22.9906 92.2546 23.5385C92.4784 24.0788 92.8797 24.4338 93.4585 24.6036V24.8583C93.0726 24.8351 92.652 24.8158 92.1967 24.8004C91.7413 24.7927 91.0738 24.7888 90.194 24.7888C89.3913 24.7888 88.7585 24.7927 88.2954 24.8004C87.8401 24.8158 87.4079 24.8351 86.9989 24.8583L86.9873 24.6036C87.5584 24.4184 87.952 24.0672 88.1681 23.5501C88.3919 23.033 88.5038 21.9835 88.5038 20.4013V18.1555C88.5038 16.5194 88.307 15.3309 87.9134 14.59C87.5198 13.8491 86.887 13.4787 86.0149 13.4787C85.1197 13.4787 84.3981 13.9031 83.8501 14.7521C83.3022 15.601 83.0282 16.7355 83.0282 18.1555V19.811C83.0282 21.7403 83.1362 22.979 83.3523 23.527C83.5761 24.0749 83.9813 24.4338 84.5678 24.6036V24.8583C84.182 24.8351 83.7614 24.8158 83.306 24.8004C82.8507 24.7927 82.1831 24.7888 81.3033 24.7888C80.5007 24.7888 79.8678 24.7927 79.4048 24.8004C78.9494 24.8158 78.5173 24.8351 78.1082 24.8583Z" fill="black"/>
<path d="M103.212 16.2802C103.181 15.2151 102.961 14.3778 102.552 13.7681C102.143 13.1507 101.607 12.842 100.943 12.842C100.279 12.842 99.7237 13.143 99.2761 13.7449C98.8284 14.3392 98.5313 15.1843 98.3847 16.2802H103.212ZM107.252 17.1252H98.3615L98.3499 17.2063C98.3268 17.6848 98.3152 18.0398 98.3152 18.2713C98.3152 20.0541 98.6741 21.4471 99.3918 22.4504C100.117 23.4537 101.117 23.9553 102.39 23.9553C103.455 23.9553 104.362 23.5887 105.111 22.8555C105.859 22.1147 106.423 21.0265 106.801 19.591L107.437 20.1698C106.951 21.8137 106.183 23.0485 105.134 23.8743C104.092 24.6923 102.764 25.1014 101.151 25.1014C99.1449 25.1014 97.5126 24.4955 96.2546 23.2839C95.0044 22.0645 94.3792 20.4862 94.3792 18.5491C94.3792 16.6583 94.9967 15.1109 96.2315 13.907C97.474 12.703 99.0754 12.1011 101.036 12.1011C102.795 12.1011 104.215 12.5371 105.296 13.4092C106.376 14.2813 107.028 15.52 107.252 17.1252Z" fill="black"/>
</g>
<g opacity="0.87">
<path d="M49.5777 33.886C49.5777 33.6236 49.6665 33.4037 49.844 33.2261C50.0215 33.0486 50.2395 32.9599 50.4981 32.9599C50.7566 32.9599 50.9766 33.0506 51.1579 33.2319C51.3431 33.4094 51.4358 33.6275 51.4358 33.886C51.4358 34.1445 51.3431 34.3684 51.1579 34.5574C50.9766 34.7427 50.7566 34.8353 50.4981 34.8353C50.2395 34.8353 50.0215 34.7446 49.844 34.5632C49.6665 34.378 49.5777 34.1523 49.5777 33.886Z" fill="black"/>
<path d="M53.0047 29.1339L53.5488 26.9865H60.9809L61.5018 29.1339L61.3745 29.1802C60.9539 28.613 60.5178 28.1711 60.0663 27.8547C59.6187 27.5344 59.2135 27.3743 58.8508 27.3743C58.6193 27.3743 58.4611 27.4418 58.3762 27.5769C58.2952 27.7119 58.2546 28.0843 58.2546 28.694V31.9875C58.2546 33.0255 58.3144 33.6931 58.4341 33.9902C58.5575 34.2835 58.791 34.4706 59.1344 34.5516L59.1287 34.7021C58.8663 34.6906 58.5942 34.6809 58.3125 34.6732C58.0347 34.6693 57.6642 34.6674 57.2012 34.6674C56.7651 34.6674 56.4159 34.6693 56.1535 34.6732C55.8911 34.6809 55.6364 34.6906 55.3895 34.7021V34.5516C55.7213 34.4783 55.9471 34.3008 56.0667 34.0191C56.1902 33.7336 56.2519 33.0564 56.2519 31.9875V28.694C56.2519 28.0843 56.2095 27.7119 56.1246 27.5769C56.0435 27.4418 55.8892 27.3743 55.6615 27.3743C55.2949 27.3743 54.8878 27.5344 54.4402 27.8547C53.9926 28.1711 53.5585 28.613 53.1379 29.1802L53.0047 29.1339Z" fill="black"/>
<path d="M64.8651 34.4532C65.4015 34.4532 65.8086 34.2101 66.0864 33.7239C66.3643 33.2339 66.5032 32.5123 66.5032 31.5591C66.5032 30.6176 66.3643 29.9057 66.0864 29.4233C65.8086 28.9371 65.4015 28.694 64.8651 28.694C64.3403 28.694 63.939 28.939 63.6612 29.4291C63.3872 29.9153 63.2502 30.6215 63.2502 31.5476C63.2502 32.5007 63.3872 33.2242 63.6612 33.7181C63.9352 34.2082 64.3365 34.4532 64.8651 34.4532ZM61.3228 31.5881C61.3228 30.6157 61.6488 29.8304 62.301 29.2323C62.957 28.6342 63.8194 28.3351 64.8883 28.3351C65.9417 28.3351 66.7926 28.6342 67.4409 29.2323C68.093 29.8304 68.4191 30.6099 68.4191 31.5707C68.4191 32.5393 68.0911 33.3226 67.4351 33.9207C66.7791 34.515 65.9147 34.8121 64.842 34.8121C63.8078 34.8121 62.9628 34.5092 62.3068 33.9034C61.6508 33.2975 61.3228 32.5258 61.3228 31.5881Z" fill="black"/>
<path d="M72.7259 28.8329C72.2204 28.8329 71.8287 29.0722 71.5509 29.5506C71.2769 30.0291 71.1399 30.7121 71.1399 31.5997C71.1399 32.5026 71.2769 33.1933 71.5509 33.6718C71.8287 34.1465 72.23 34.3838 72.7548 34.3838C73.2526 34.3838 73.6327 34.1465 73.8951 33.6718C74.1614 33.1933 74.2945 32.5026 74.2945 31.5997C74.2945 30.7006 74.1594 30.0156 73.8893 29.5449C73.6231 29.0702 73.2353 28.8329 72.7259 28.8329ZM74.3987 33.7529C74.1594 34.1233 73.8739 34.3973 73.542 34.5748C73.214 34.7484 72.8204 34.8353 72.3612 34.8353C71.4351 34.8353 70.6807 34.5401 70.0981 33.9497C69.5192 33.3593 69.2298 32.5875 69.2298 31.6344C69.2298 30.7006 69.5212 29.9192 70.1038 29.2902C70.6904 28.6612 71.4197 28.3467 72.2918 28.3467C72.7008 28.3467 73.0713 28.4258 73.4031 28.584C73.735 28.7384 74.0321 28.9718 74.2945 29.2844V27.8026C74.2945 27.274 74.2501 26.946 74.1614 26.8186C74.0765 26.6874 73.9144 26.6122 73.6752 26.5929V26.4655C74.1189 26.3999 74.5337 26.3324 74.9196 26.263C75.3055 26.1896 75.6702 26.1105 76.0136 26.0256C75.9982 26.4154 75.9866 26.7916 75.9789 27.1543C75.9711 27.5171 75.9673 27.8644 75.9673 28.1962V31.9064C75.9673 32.9174 76.0213 33.5966 76.1294 33.9439C76.2374 34.2912 76.4323 34.4976 76.714 34.5632V34.6906C76.5866 34.6828 76.4516 34.6771 76.3088 34.6732C76.166 34.6693 75.9557 34.6674 75.6779 34.6674C75.4232 34.6674 75.236 34.6693 75.1164 34.6732C74.9968 34.6771 74.8887 34.6828 74.7923 34.6906C74.7112 34.5478 74.6379 34.3992 74.5723 34.2449C74.5067 34.0867 74.4488 33.9227 74.3987 33.7529Z" fill="black"/>
<path d="M81.4549 31.2176C81.424 31.2138 81.3893 31.2119 81.3507 31.2119C81.3121 31.208 81.2561 31.2061 81.1828 31.2061C80.55 31.2061 80.0638 31.3527 79.7242 31.646C79.3846 31.9392 79.2148 32.3618 79.2148 32.9136C79.2148 33.3342 79.3036 33.6718 79.4811 33.9265C79.6625 34.1773 79.9017 34.3028 80.1988 34.3028C80.6387 34.3028 80.9571 34.0905 81.1539 33.6661C81.3545 33.2416 81.4549 32.5489 81.4549 31.5881V31.2176ZM83.9959 34.488L83.9901 34.6906C83.5926 34.6828 83.2936 34.6771 83.0929 34.6732C82.8923 34.6693 82.7071 34.6674 82.5373 34.6674H82.0163C81.9199 34.5169 81.8369 34.3626 81.7674 34.2044C81.7018 34.0423 81.6459 33.8725 81.5996 33.695C81.3758 34.0886 81.1076 34.3761 80.795 34.5574C80.4863 34.7349 80.1024 34.8237 79.6432 34.8237C78.9216 34.8237 78.3331 34.6462 77.8778 34.2912C77.4263 33.9362 77.2006 33.4847 77.2006 32.9367C77.2006 32.2846 77.5517 31.7887 78.254 31.4492C78.9563 31.1057 80.0233 30.9109 81.4549 30.8646V30.8125C81.4549 30.1217 81.3353 29.597 81.096 29.2381C80.8568 28.8754 80.5075 28.694 80.0483 28.694C79.5853 28.694 79.2091 28.8522 78.9196 29.1686C78.6302 29.485 78.3929 29.9983 78.2077 30.7083H78.0456L77.4958 28.9429C77.9318 28.7345 78.3813 28.5802 78.8444 28.4798C79.3075 28.3756 79.7879 28.3235 80.2857 28.3235C80.8375 28.3235 81.3198 28.3911 81.7327 28.5261C82.1456 28.6612 82.4678 28.8599 82.6993 29.1223C82.8884 29.3191 83.0196 29.5545 83.0929 29.8285C83.1701 30.0986 83.2087 30.5887 83.2087 31.2987V31.8486C83.2087 32.8634 83.2647 33.5406 83.3766 33.8802C83.4923 34.2198 83.6988 34.4224 83.9959 34.488Z" fill="black"/>
<path d="M84.6446 36.9422L85.4144 34.8468L85.5822 34.8931C85.6286 35.1285 85.7057 35.3003 85.8138 35.4083C85.9257 35.5163 86.0781 35.5704 86.271 35.5704C86.5334 35.5704 86.7418 35.4932 86.8962 35.3388C87.0544 35.1845 87.1335 34.9761 87.1335 34.7137C87.1335 34.5632 87.1084 34.4012 87.0582 34.2275C87.0081 34.0539 86.9309 33.8571 86.8267 33.6371L84.8819 29.5796L84.8761 29.5738C84.5867 28.9795 84.3243 28.6496 84.0889 28.584V28.4567C84.3899 28.4683 84.6793 28.4779 84.9571 28.4856C85.2388 28.4895 85.5147 28.4914 85.7848 28.4914C86.0549 28.4914 86.3193 28.4895 86.5778 28.4856C86.8402 28.4779 87.0968 28.4683 87.3476 28.4567V28.584C87.1547 28.6573 87.01 28.7538 86.9135 28.8734C86.8171 28.993 86.7688 29.1339 86.7688 29.296C86.7688 29.404 86.7862 29.5217 86.8209 29.649C86.8556 29.7764 86.9039 29.9037 86.9656 30.0311L88.3085 32.63L89.3735 30.0311C89.4314 29.8883 89.4758 29.7532 89.5066 29.6259C89.5375 29.4986 89.5529 29.3886 89.5529 29.296C89.5529 29.0992 89.497 28.9448 89.3851 28.8329C89.277 28.7171 89.1034 28.6342 88.8642 28.584V28.4567C89.0532 28.4683 89.2481 28.4779 89.4488 28.4856C89.6494 28.4895 89.8539 28.4914 90.0623 28.4914C90.2745 28.4914 90.4887 28.4895 90.7048 28.4856C90.9248 28.4779 91.1486 28.4683 91.3762 28.4567V28.584C91.11 28.7229 90.8746 28.9101 90.6701 29.1455C90.4656 29.3809 90.2398 29.7474 89.9929 30.2452L88.2506 33.7529C87.5985 35.0687 87.0467 35.9389 86.5952 36.3633C86.1476 36.7878 85.6324 37.0001 85.0497 37.0001C84.9764 37.0001 84.905 36.9943 84.8356 36.9827C84.77 36.975 84.7063 36.9615 84.6446 36.9422Z" fill="black"/>
</g>
<g opacity="0.87">
<path d="M18 3.10826L18.5441 0.96084H25.9761L26.4971 3.10826L26.3697 3.15457C25.9491 2.58732 25.5131 2.14549 25.0616 1.82907C24.614 1.50879 24.2088 1.34865 23.8461 1.34865C23.6145 1.34865 23.4563 1.41618 23.3714 1.55124C23.2904 1.68629 23.2499 2.05867 23.2499 2.66836V5.96184C23.2499 6.99986 23.3097 7.66743 23.4293 7.96456C23.5528 8.25782 23.7863 8.44498 24.1297 8.52601L24.1239 8.6765C23.8615 8.66493 23.5895 8.65528 23.3078 8.64756C23.0299 8.6437 22.6595 8.64177 22.1964 8.64177C21.7604 8.64177 21.4112 8.6437 21.1488 8.64756C20.8864 8.65528 20.6317 8.66493 20.3847 8.6765V8.52601C20.7166 8.45269 20.9423 8.27519 21.062 7.9935C21.1854 7.70795 21.2472 7.03073 21.2472 5.96184V2.66836C21.2472 2.05867 21.2047 1.68629 21.1198 1.55124C21.0388 1.41618 20.8845 1.34865 20.6568 1.34865C20.2902 1.34865 19.8831 1.50879 19.4355 1.82907C18.9879 2.14549 18.5537 2.58732 18.1331 3.15457L18 3.10826Z" fill="black"/>
<path d="M26.7174 8.6765L26.7116 8.54916C27.0049 8.45269 27.2055 8.2694 27.3136 7.99928C27.4255 7.72531 27.4814 7.14456 27.4814 6.25704V1.77698C27.4814 1.25604 27.439 0.92997 27.3541 0.798771C27.2692 0.667572 27.1033 0.590396 26.8563 0.567243V0.439903C27.2461 0.389738 27.6377 0.327998 28.0313 0.254681C28.4249 0.177505 28.8147 0.0926111 29.2005 0C29.1851 0.32028 29.1735 0.663713 29.1658 1.0303C29.1581 1.39303 29.1542 1.77312 29.1542 2.17057V3.6755C29.3549 3.21631 29.625 2.8748 29.9646 2.65099C30.3042 2.42332 30.7228 2.30949 31.2206 2.30949C32.031 2.30949 32.6329 2.54873 33.0265 3.02723C33.424 3.50572 33.6227 4.23503 33.6227 5.21516V6.25704C33.6227 7.15614 33.6787 7.74267 33.7906 8.01665C33.9025 8.28677 34.1031 8.46427 34.3926 8.54916V8.6765C34.1996 8.66493 33.9893 8.65528 33.7616 8.64756C33.534 8.6437 33.2002 8.64177 32.7603 8.64177C32.359 8.64177 32.0425 8.6437 31.811 8.64756C31.5834 8.65528 31.3673 8.66493 31.1627 8.6765L31.157 8.54916C31.4425 8.45655 31.6393 8.28098 31.7473 8.02244C31.8593 7.76004 31.9152 7.23138 31.9152 6.43647V5.32514C31.9152 4.50707 31.8168 3.91282 31.62 3.54238C31.4232 3.17193 31.1068 2.98671 30.6707 2.98671C30.2231 2.98671 29.8623 3.19894 29.5884 3.62341C29.3144 4.04788 29.1774 4.61512 29.1774 5.32514V6.15285C29.1774 7.11755 29.2314 7.73689 29.3395 8.01086C29.4514 8.28484 29.654 8.46427 29.9472 8.54916V8.6765C29.7543 8.66493 29.544 8.65528 29.3163 8.64756C29.0886 8.6437 28.7549 8.64177 28.3149 8.64177C27.9136 8.64177 27.5972 8.6437 27.3657 8.64756C27.138 8.65528 26.9219 8.66493 26.7174 8.6765Z" fill="black"/>
<path d="M39.3187 4.38745C39.3033 3.85494 39.1933 3.43626 38.9888 3.13141C38.7843 2.82271 38.5161 2.66836 38.1842 2.66836C37.8524 2.66836 37.5745 2.81885 37.3507 3.11984C37.1269 3.41696 36.9783 3.8395 36.905 4.38745H39.3187ZM41.3388 4.80999H36.8934L36.8877 4.85051C36.8761 5.08975 36.8703 5.26726 36.8703 5.38302C36.8703 6.2744 37.0497 6.97092 37.4086 7.47256C37.7713 7.9742 38.271 8.22502 38.9077 8.22502C39.4402 8.22502 39.8937 8.04173 40.268 7.67515C40.6423 7.3047 40.924 6.76061 41.113 6.04287L41.4314 6.33228C41.1883 7.15421 40.8043 7.77162 40.2795 8.18451C39.7586 8.59354 39.0949 8.79806 38.2884 8.79806C37.2851 8.79806 36.469 8.49514 35.84 7.88931C35.2149 7.27962 34.9023 6.4905 34.9023 5.52194C34.9023 4.57653 35.211 3.80284 35.8284 3.20087C36.4497 2.5989 37.2504 2.29791 38.2305 2.29791C39.1103 2.29791 39.8203 2.51594 40.3606 2.95198C40.9008 3.38802 41.2269 4.00736 41.3388 4.80999Z" fill="black"/>
</g>
</svg>
